<svg version="1.1" id="space-layer" xmlns="http://www.w3.org/2000/svg" xmlns:xlink="http://www.w3.org/1999/xlink"
          x="0px" y="0px" width="1400px" height="980px" viewBox="0 0 1400 980" enable-background="new 0 0 1400 980"
          xml:space="preserve">
          <style>
               #astronaut {
                    animation: jump;
                    animation-duration: 7s;
                    animation-timing-function: cubic-bezier();
                    animation-iteration-count: infinite;
                    /* transition: all 7s cubic-bezier(0.455, 0.03, 0.515, 0.955); */
               }

               circle[r=4] {
                    animation: blink;
                    animation-timing-function: linear;
                    animation-duration: 7s;
                    animation-iteration-count:infinite;
               }

               @keyframes blink {
                    0% {
                         opacity: 0;
                         transform: scale(2) rotate(10deg);
                    }
                    50% {
                         opacity: 1;
                         transform: scale(0) rotate(0deg);
                    }
                    100% {
                         opacity: 0;
                         transform: scale(2) rotate(10deg);
                    }
               }

               #left-rocket path {
                    transition: all 0.2s cubic-bezier();
                    transform-box: fill-box;
                    transform-origin: center;
               }

               #orange-astronaut {
                    transition: all 150s linear;
                    transform-box: fill-box;
                    transform-origin: center;
                    /* transform:rotate(360deg); */
                    animation: rotate-asteroid;
                    animation-duration: 100s;
                    animation-timing-function: linear;
                    animation-iteration-count: infinite;
               }

               @keyframes rotate-asteroid {
                    from {
                         transform: rotate(0deg);
                    }

                    to {
                         transform: rotate(360deg);
                    }
               }

               @keyframes jump {
                    0% {
                         transform: rotate(0deg);
                    }

                    50% {
                         transform: rotate(-2deg);
                    }

                    100% {
                         transform: rotate(0deg);
                    }
               }

               animate-big {
                    transform: translateY(100%);
               }

               circle {
                    transition: all 7s linear;
               }

               circle[r="4"] {
                    transition: all 6s cubic-bezier(0.47, 0, 0.745, 0.715);
               }
          </style>
          <g id="space-image">
               <g id="background">
                    <rect x="0.5" y="0.5" fill="#270237" width="1400" height="980" />
                    <path id="background-big-shadow" fill="#38194B" d="M0.5,623.5c0,0,1017.699-784.3,806.399-319.8
           C570.199,824.1,1297.5,897.5,1400.5,655.5V0.5H0.5V623.5z" />
                    <path id="background-smaller-shadow" fill="#38194B" d="M0.5,980.5c0,0,754.399-780.8,550.399-400.8
           c-151.2,281.6,120,400.8,494.601,400.8H0.5z" />
                    <circle fill="#734B94" cx="75.1" cy="124.3" r="7" />
                    <circle fill="#734B94" cx="360.1" cy="542.2" r="7" />
                    <circle fill="#734B94" cx="570.1" cy="831.1" r="7" />
                    <circle fill="#734B94" cx="1297.5" cy="904.5" r="7" />
                    <circle fill="#734B94" cx="1293.5" cy="452.5" r="7" />
                    <circle fill="#734B94" cx="406.6" cy="60.2" r="7" />
                    <circle fill="#734B94" cx="965.5" cy="694.6" r="7" />
                    <circle fill="#734B94" cx="1158.1" cy="82.2" r="7" />
                    <circle fill="#734B94" cx="1114.3" cy="360.4" r="4" />
                    <circle fill="#734B94" cx="1015.4" cy="396.4" r="4" />
                    <circle fill="#734B94" cx="1261.5" cy="209.5" r="4" />
                    <circle fill="#734B94" cx="1132.9" cy="179.8" r="4" />
                    <circle fill="#734B94" cx="1015.4" cy="348.4" r="4" />
                    <circle fill="#734B94" cx="984.4" cy="187.3" r="4" />
                    <circle fill="#734B94" cx="795.8" cy="186.8" r="4" />
                    <circle fill="#734B94" cx="840.3" cy="507.4" r="4" />
                    <circle fill="#734B94" cx="940.8" cy="33.8" r="4" />
                    <circle fill="#734B94" cx="787.3" cy="138.3" r="4" />
                    <circle fill="#734B94" cx="658.199" cy="148.1" r="4" />
                    <circle fill="#734B94" cx="693.199" cy="41.1" r="4" />
                    <circle fill="#734B94" cx="668.3" cy="625.4" r="4" />
                    <circle fill="#734B94" cx="286.3" cy="858.4" r="4" />
                    <circle fill="#734B94" cx="456.8" cy="927.9" r="4" />
                    <circle fill="#734B94" cx="478.8" cy="773.9" r="4" />
                    <circle fill="#734B94" cx="194.8" cy="38.3" r="4" />
                    <circle fill="#734B94" cx="31.3" cy="102.3" r="4" />
                    <circle fill="#734B94" cx="420.699" cy="632.7" r="4" />
                    <circle fill="#734B94" cx="187.3" cy="651.4" r="4" />
                    <circle fill="#734B94" cx="253.3" cy="533.4" r="4" />
                    <circle fill="#734B94" cx="169.3" cy="404.4" r="4" />
                    <circle fill="#734B94" cx="91.3" cy="584.4" r="4" />
                    <circle fill="#734B94" cx="305.3" cy="406.4" r="4" />
                    <circle fill="#734B94" cx="333.8" cy="434.9" r="4" />
                    <circle fill="#734B94" cx="67.1" cy="471.2" r="4" />
                    <circle fill="#734B94" cx="51.3" cy="751.4" r="4" />
                    <circle fill="#734B94" cx="1195.4" cy="507.4" r="4" />
                    <circle fill="#734B94" cx="1310.4" cy="622.4" r="4" />
                    <circle fill="#734B94" cx="1354.4" cy="753.4" r="4" />
                    <circle fill="#734B94" cx="1354.4" cy="950.4" r="4" />
                    <circle fill="#734B94" cx="1102.4" cy="950.4" r="4" />
                    <circle fill="#734B94" cx="941.3" cy="853.4" r="4" />
                    <circle fill="#734B94" cx="603.3" cy="958.4" r="4" />
                    <circle fill="#734B94" cx="148.3" cy="958.4" r="4" />
                    <circle fill="#734B94" cx="768.3" cy="826.4" r="4" />
                    <circle fill="#734B94" cx="835.3" cy="959.4" r="4" />
                    <circle fill="#734B94" cx="835.3" cy="634.4" r="4" />
                    <circle fill="#734B94" cx="1381.5" cy="354.5" r="4" />
                    <circle fill="#734B94" cx="1298.5" cy="48.5" r="4" />
                    <path id="background-upper-left-shadow" fill="#270237"
                         d="M0.5,281.9C0.5,281.9,230.9,0.6,466.4,0.6H0.5V281.9z" />
                    <path id="background-upper-rightshadow" fill="#270237" d="M982.4,0.5c0,0,246-8.2,112.5,234.8s267.8,238.5,305.601,120V0.5H982.4
           z" />
                    <path display="none" fill="#38194B" d="M945.9,400.9c0,0-27.3,168.5,118.9,196.6c108.7,20.9,156-74.9,169.2-61.7
           c13.1,13.101-27.4,149.7-197.7,117.7S886.5,426.4,925.4,358.6C969.9,280.9,945.9,395.2,945.9,400.9z" />
               </g>
               <g id="stars-13">
                    <ellipse fill="#734B94" cx="333.8" cy="13.9" rx="2.6" ry="2.7" />
                    <ellipse fill="#734B94" cx="397.4" cy="112.4" rx="2.601" ry="2.7" />
                    <ellipse fill="#734B94" cx="355.4" cy="189.4" rx="2.601" ry="2.7" />
                    <ellipse fill="#734B94" cx="361.5" cy="184.8" rx="2" ry="2.1" />
                    <ellipse fill="#734B94" cx="458.6" cy="95.9" rx="2" ry="2.1" />
                    <ellipse fill="#734B94" cx="327.9" cy="113.8" rx="2" ry="2.1" />
                    <ellipse fill="#734B94" cx="235.2" cy="140.5" rx="2" ry="2.1" />
                    <ellipse fill="#734B94" cx="331.199" cy="247.2" rx="2" ry="2.1" />
                    <ellipse fill="#734B94" cx="272.1" cy="68.1" rx="2" ry="2.1" />
                    <ellipse fill="#734B94" cx="241" cy="262.3" rx="2" ry="2.1" />
                    <ellipse fill="#734B94" cx="119.3" cy="72.4" rx="2.6" ry="2.7" />
                    <ellipse fill="#734B94" cx="182.9" cy="170.9" rx="2.601" ry="2.7" />
                    <ellipse fill="#734B94" cx="140.9" cy="247.9" rx="2.601" ry="2.7" />
                    <ellipse fill="#734B94" cx="147" cy="243.3" rx="2" ry="2.1" />
                    <ellipse fill="#734B94" cx="244.1" cy="154.4" rx="2" ry="2.1" />
                    <ellipse fill="#734B94" cx="113.4" cy="172.4" rx="2" ry="2.1" />
                    <ellipse fill="#734B94" cx="20.7" cy="199" rx="2" ry="2.1" />
                    <ellipse fill="#734B94" cx="116.7" cy="305.7" rx="2" ry="2.1" />
                    <ellipse fill="#734B94" cx="57.6" cy="126.6" rx="2" ry="2.1" />
                    <ellipse fill="#734B94" cx="26.5" cy="320.8" rx="2" ry="2.1" />
               </g>
               <g id="stars-12">
                    <ellipse fill="#B48FC2" cx="751.699" cy="84.6" rx="2.601" ry="2.7" />
                    <ellipse fill="#B48FC2" cx="815.3" cy="183.2" rx="2.6" ry="2.7" />
                    <ellipse fill="#B48FC2" cx="773.3" cy="260.2" rx="2.6" ry="2.7" />
                    <ellipse fill="#B48FC2" cx="779.4" cy="255.5" rx="2" ry="2.1" />
                    <ellipse fill="#B48FC2" cx="876.5" cy="166.7" rx="2" ry="2.1" />
                    <ellipse fill="#B48FC2" cx="745.8" cy="184.6" rx="2" ry="2.1" />
                    <ellipse fill="#B48FC2" cx="653.1" cy="211.2" rx="2" ry="2.1" />
                    <ellipse fill="#B48FC2" cx="749.1" cy="318" rx="2" ry="2.1" />
                    <ellipse fill="#B48FC2" cx="690" cy="138.8" rx="2" ry="2.1" />
                    <ellipse fill="#B48FC2" cx="658.9" cy="333" rx="2" ry="2.1" />
                    <ellipse fill="#B48FC2" cx="537.1" cy="143.2" rx="2.6" ry="2.7" />
                    <ellipse fill="#B48FC2" cx="600.699" cy="241.7" rx="2.601" ry="2.7" />
                    <ellipse fill="#B48FC2" cx="558.699" cy="318.7" rx="2.601" ry="2.7" />
                    <ellipse fill="#B48FC2" cx="564.9" cy="314.1" rx="2" ry="2.1" />
                    <ellipse fill="#B48FC2" cx="662" cy="225.2" rx="2" ry="2.1" />
                    <ellipse fill="#B48FC2" cx="531.3" cy="243.1" rx="2" ry="2.1" />
                    <ellipse fill="#B48FC2" cx="438.6" cy="269.8" rx="2" ry="2.1" />
                    <ellipse fill="#B48FC2" cx="534.6" cy="376.5" rx="2" ry="2.1" />
                    <ellipse fill="#B48FC2" cx="475.5" cy="197.4" rx="2" ry="2.1" />
                    <ellipse fill="#B48FC2" cx="444.4" cy="391.6" rx="2" ry="2.1" />
               </g>
               <g id="stars-11">
                    <ellipse fill="#E1E2E2" cx="589.5" cy="477.1" rx="2.6" ry="2.7" />
                    <ellipse fill="#E1E2E2" cx="653.1" cy="575.6" rx="2.6" ry="2.7" />
                    <ellipse fill="#E1E2E2" cx="611.1" cy="652.6" rx="2.6" ry="2.7" />
                    <ellipse fill="#E1E2E2" cx="617.199" cy="648" rx="2" ry="2.1" />
                    <ellipse fill="#E1E2E2" cx="714.3" cy="559.2" rx="2" ry="2.1" />
                    <ellipse fill="#E1E2E2" cx="583.699" cy="577.1" rx="2" ry="2.1" />
                    <ellipse fill="#E1E2E2" cx="490.9" cy="603.7" rx="2" ry="2.1" />
                    <ellipse fill="#E1E2E2" cx="586.9" cy="710.5" rx="2" ry="2.1" />
                    <ellipse fill="#E1E2E2" cx="527.9" cy="531.3" rx="2" ry="2.1" />
                    <ellipse fill="#E1E2E2" cx="496.699" cy="725.5" rx="2" ry="2.1" />
                    <ellipse fill="#E1E2E2" cx="375" cy="535.7" rx="2.6" ry="2.7" />
                    <ellipse fill="#E1E2E2" cx="438.6" cy="634.2" rx="2.6" ry="2.7" />
                    <ellipse fill="#E1E2E2" cx="396.6" cy="711.2" rx="2.6" ry="2.7" />
                    <ellipse fill="#E1E2E2" cx="402.699" cy="706.6" rx="2" ry="2.1" />
                    <ellipse fill="#E1E2E2" cx="499.8" cy="617.7" rx="2" ry="2.1" />
                    <ellipse fill="#E1E2E2" cx="369.1" cy="635.6" rx="2" ry="2.1" />
                    <ellipse fill="#E1E2E2" cx="276.4" cy="662.3" rx="2" ry="2.1" />
                    <ellipse fill="#E1E2E2" cx="372.4" cy="769" rx="2" ry="2.1" />
                    <ellipse fill="#E1E2E2" cx="313.3" cy="589.9" rx="2" ry="2.1" />
                    <ellipse fill="#E1E2E2" cx="282.2" cy="784.1" rx="2" ry="2.1" />
               </g>
               <g id="stars-10">
                    <ellipse fill="#734B94" cx="338.699" cy="578.5" rx="2.601" ry="2.7" />
                    <ellipse fill="#734B94" cx="402.3" cy="677" rx="2.6" ry="2.7" />
                    <ellipse fill="#734B94" cx="360.3" cy="754" rx="2.6" ry="2.7" />
                    <ellipse fill="#734B94" cx="366.4" cy="749.4" rx="2" ry="2.1" />
                    <ellipse fill="#734B94" cx="463.5" cy="660.5" rx="2" ry="2.1" />
                    <ellipse fill="#734B94" cx="332.8" cy="678.5" rx="2" ry="2.1" />
                    <ellipse fill="#734B94" cx="240.1" cy="705.1" rx="2" ry="2.1" />
                    <ellipse fill="#734B94" cx="336.1" cy="811.8" rx="2" ry="2.1" />
                    <ellipse fill="#734B94" cx="277" cy="632.7" rx="2" ry="2.1" />
                    <ellipse fill="#734B94" cx="245.9" cy="826.9" rx="2" ry="2.1" />
                    <ellipse fill="#734B94" cx="124.1" cy="637.1" rx="2.601" ry="2.7" />
                    <ellipse fill="#734B94" cx="187.7" cy="735.6" rx="2.6" ry="2.7" />
                    <ellipse fill="#734B94" cx="145.7" cy="812.6" rx="2.6" ry="2.7" />
                    <ellipse fill="#734B94" cx="151.9" cy="808" rx="2" ry="2.1" />
                    <ellipse fill="#734B94" cx="249" cy="719.1" rx="2" ry="2.1" />
                    <ellipse fill="#734B94" cx="118.3" cy="737" rx="2" ry="2.1" />
                    <ellipse fill="#734B94" cx="25.6" cy="763.7" rx="2" ry="2.1" />
                    <ellipse fill="#734B94" cx="121.6" cy="870.4" rx="2" ry="2.1" />
                    <ellipse fill="#734B94" cx="62.5" cy="691.3" rx="2" ry="2.1" />
                    <ellipse fill="#734B94" cx="31.4" cy="885.5" rx="2" ry="2.1" />
               </g>
               <g id="stars-9">
                    <ellipse fill="#E1E2E2" cx="409" cy="271.6" rx="2.6" ry="2.7" />
                    <ellipse fill="#E1E2E2" cx="472.6" cy="370.1" rx="2.6" ry="2.7" />
                    <ellipse fill="#E1E2E2" cx="430.6" cy="447.1" rx="2.6" ry="2.7" />
                    <ellipse fill="#E1E2E2" cx="436.699" cy="442.5" rx="2" ry="2.1" />
                    <ellipse fill="#E1E2E2" cx="533.8" cy="353.6" rx="2" ry="2.1" />
                    <ellipse fill="#E1E2E2" cx="403.1" cy="371.5" rx="2" ry="2.1" />
                    <ellipse fill="#E1E2E2" cx="310.4" cy="398.2" rx="2" ry="2.1" />
                    <ellipse fill="#E1E2E2" cx="406.4" cy="504.9" rx="2" ry="2.1" />
                    <ellipse fill="#E1E2E2" cx="347.3" cy="325.8" rx="2" ry="2.1" />
                    <ellipse fill="#E1E2E2" cx="316.199" cy="520" rx="2" ry="2.1" />
                    <ellipse fill="#E1E2E2" cx="194.4" cy="330.1" rx="2.601" ry="2.7" />
                    <ellipse fill="#E1E2E2" cx="258" cy="428.7" rx="2.6" ry="2.7" />
                    <ellipse fill="#E1E2E2" cx="216" cy="505.7" rx="2.6" ry="2.7" />
                    <ellipse fill="#E1E2E2" cx="222.2" cy="501" rx="2" ry="2.1" />
                    <ellipse fill="#E1E2E2" cx="319.3" cy="412.2" rx="2" ry="2.1" />
                    <ellipse fill="#E1E2E2" cx="188.6" cy="430.1" rx="2" ry="2.1" />
                    <ellipse fill="#E1E2E2" cx="95.9" cy="456.7" rx="2" ry="2.1" />
                    <ellipse fill="#E1E2E2" cx="191.9" cy="563.5" rx="2" ry="2.1" />
                    <ellipse fill="#E1E2E2" cx="132.8" cy="384.3" rx="2" ry="2.1" />
                    <ellipse fill="#E1E2E2" cx="101.6" cy="578.5" rx="2" ry="2.1" />
               </g>
               <g id="stars-8">
                    <ellipse fill="#734B94" cx="976.3" cy="228.5" rx="2.6" ry="2.7" />
                    <ellipse fill="#734B94" cx="1039.9" cy="327" rx="2.601" ry="2.7" />
                    <ellipse fill="#734B94" cx="997.9" cy="404" rx="2.601" ry="2.7" />
                    <ellipse fill="#734B94" cx="1004" cy="399.4" rx="2" ry="2.1" />
                    <ellipse fill="#734B94" cx="1101.1" cy="310.5" rx="2" ry="2.1" />
                    <ellipse fill="#734B94" cx="970.5" cy="328.4" rx="2" ry="2.1" />
                    <ellipse fill="#734B94" cx="877.699" cy="355.1" rx="2" ry="2.1" />
                    <ellipse fill="#734B94" cx="973.699" cy="461.8" rx="2" ry="2.1" />
                    <ellipse fill="#734B94" cx="914.699" cy="282.7" rx="2" ry="2.1" />
                    <ellipse fill="#734B94" cx="883.5" cy="476.9" rx="2" ry="2.1" />
                    <ellipse fill="#734B94" cx="761.8" cy="287.1" rx="2.6" ry="2.7" />
                    <ellipse fill="#734B94" cx="825.4" cy="385.6" rx="2.601" ry="2.7" />
                    <ellipse fill="#734B94" cx="783.4" cy="462.6" rx="2.601" ry="2.7" />
                    <ellipse fill="#734B94" cx="789.5" cy="457.9" rx="2" ry="2.1" />
                    <ellipse fill="#734B94" cx="886.6" cy="369.1" rx="2" ry="2.1" />
                    <ellipse fill="#734B94" cx="755.9" cy="387" rx="2" ry="2.1" />
                    <ellipse fill="#734B94" cx="663.199" cy="413.7" rx="2" ry="2.1" />
                    <ellipse fill="#734B94" cx="759.199" cy="520.4" rx="2" ry="2.1" />
                    <ellipse fill="#734B94" cx="700.1" cy="341.3" rx="2" ry="2.1" />
                    <ellipse fill="#734B94" cx="669" cy="535.5" rx="2" ry="2.1" />
               </g>
               <g id="stars-7">
                    <ellipse fill="#E1E2E2" cx="1091.4" cy="77.5" rx="2.601" ry="2.7" />
                    <ellipse fill="#E1E2E2" cx="1097.6" cy="72.9" rx="2" ry="2.1" />
                    <ellipse fill="#E1E2E2" cx="971.3" cy="28.6" rx="2" ry="2.1" />
                    <ellipse fill="#E1E2E2" cx="1067.3" cy="135.4" rx="2" ry="2.1" />
                    <ellipse fill="#E1E2E2" cx="977.1" cy="150.4" rx="2" ry="2.1" />
                    <ellipse fill="#E1E2E2" cx="918.9" cy="59.1" rx="2.601" ry="2.7" />
                    <ellipse fill="#E1E2E2" cx="876.9" cy="136.1" rx="2.601" ry="2.7" />
                    <ellipse fill="#E1E2E2" cx="883" cy="131.5" rx="2" ry="2.1" />
                    <ellipse fill="#E1E2E2" cx="980.1" cy="42.6" rx="2" ry="2.1" />
                    <ellipse fill="#E1E2E2" cx="849.5" cy="60.5" rx="2" ry="2.1" />
                    <ellipse fill="#E1E2E2" cx="756.699" cy="87.2" rx="2" ry="2.1" />
                    <ellipse fill="#E1E2E2" cx="852.699" cy="193.9" rx="2" ry="2.1" />
                    <ellipse fill="#E1E2E2" cx="793.6" cy="14.8" rx="2" ry="2.1" />
                    <ellipse fill="#E1E2E2" cx="762.5" cy="209" rx="2" ry="2.1" />
               </g>
               <g id="stars-6">
                    <ellipse fill="#E1E2E2" cx="1368.3" cy="125.9" rx="2.6" ry="2.7" />
                    <ellipse fill="#E1E2E2" cx="1374.4" cy="121.3" rx="2" ry="2.1" />
                    <ellipse fill="#E1E2E2" cx="1340.8" cy="50.3" rx="2" ry="2.1" />
                    <ellipse fill="#E1E2E2" cx="1248.1" cy="77" rx="2" ry="2.1" />
                    <ellipse fill="#E1E2E2" cx="1344.1" cy="183.7" rx="2" ry="2.1" />
                    <ellipse fill="#E1E2E2" cx="1253.9" cy="198.8" rx="2" ry="2.1" />
                    <ellipse fill="#E1E2E2" cx="1132.1" cy="8.9" rx="2.6" ry="2.7" />
                    <ellipse fill="#E1E2E2" cx="1195.699" cy="107.4" rx="2.601" ry="2.7" />
                    <ellipse fill="#E1E2E2" cx="1153.699" cy="184.4" rx="2.601" ry="2.7" />
                    <ellipse fill="#E1E2E2" cx="1159.9" cy="179.8" rx="2" ry="2.1" />
                    <ellipse fill="#E1E2E2" cx="1257" cy="90.9" rx="2" ry="2.1" />
                    <ellipse fill="#E1E2E2" cx="1126.3" cy="108.9" rx="2" ry="2.1" />
                    <ellipse fill="#E1E2E2" cx="1033.6" cy="135.5" rx="2" ry="2.1" />
                    <ellipse fill="#E1E2E2" cx="1129.6" cy="242.2" rx="2" ry="2.1" />
                    <ellipse fill="#E1E2E2" cx="1070.5" cy="63.1" rx="2" ry="2.1" />
                    <ellipse fill="#E1E2E2" cx="1039.3" cy="257.3" rx="2" ry="2.1" />
               </g>
               <g id="stars-5">
                    <ellipse fill="#734B94" cx="1381.199" cy="212" rx="2.601" ry="2.7" />
                    <ellipse fill="#734B94" cx="1402.8" cy="387.5" rx="2.6" ry="2.7" />
                    <ellipse fill="#734B94" cx="1375.3" cy="311.9" rx="2" ry="2.1" />
                    <ellipse fill="#734B94" cx="1282.6" cy="338.5" rx="2" ry="2.1" />
                    <ellipse fill="#734B94" cx="1378.6" cy="445.3" rx="2" ry="2.1" />
                    <ellipse fill="#734B94" cx="1319.5" cy="266.1" rx="2" ry="2.1" />
                    <ellipse fill="#734B94" cx="1288.4" cy="460.3" rx="2" ry="2.1" />
                    <ellipse fill="#734B94" cx="1166.699" cy="270.5" rx="2.601" ry="2.7" />
                    <ellipse fill="#734B94" cx="1230.3" cy="369" rx="2.6" ry="2.7" />
                    <ellipse fill="#734B94" cx="1188.3" cy="446" rx="2.6" ry="2.7" />
                    <ellipse fill="#734B94" cx="1194.4" cy="441.4" rx="2" ry="2.1" />
                    <ellipse fill="#734B94" cx="1291.5" cy="352.5" rx="2" ry="2.1" />
                    <ellipse fill="#734B94" cx="1160.8" cy="370.4" rx="2" ry="2.1" />
                    <ellipse fill="#734B94" cx="1068.1" cy="397.1" rx="2" ry="2.1" />
                    <ellipse fill="#734B94" cx="1164.1" cy="503.8" rx="2" ry="2.1" />
                    <ellipse fill="#734B94" cx="1105" cy="324.7" rx="2" ry="2.1" />
                    <ellipse fill="#734B94" cx="1073.9" cy="518.9" rx="2" ry="2.1" />
               </g>
               <g id="stars-4">
                    <ellipse fill="#E1E2E2" cx="1318.6" cy="566" rx="2" ry="2.1" />
                    <ellipse fill="#E1E2E2" cx="1355.5" cy="493.6" rx="2" ry="2.1" />
                    <ellipse fill="#E1E2E2" cx="1324.4" cy="687.8" rx="2" ry="2.1" />
                    <ellipse fill="#E1E2E2" cx="1202.699" cy="497.9" rx="2.601" ry="2.7" />
                    <ellipse fill="#E1E2E2" cx="1266.3" cy="596.4" rx="2.6" ry="2.7" />
                    <ellipse fill="#E1E2E2" cx="1224.3" cy="673.4" rx="2.6" ry="2.7" />
                    <ellipse fill="#E1E2E2" cx="1230.4" cy="668.8" rx="2" ry="2.1" />
                    <ellipse fill="#E1E2E2" cx="1327.5" cy="580" rx="2" ry="2.1" />
                    <ellipse fill="#E1E2E2" cx="1196.8" cy="597.9" rx="2" ry="2.1" />
                    <ellipse fill="#E1E2E2" cx="1104.1" cy="624.5" rx="2" ry="2.1" />
                    <ellipse fill="#E1E2E2" cx="1200.1" cy="731.3" rx="2" ry="2.1" />
                    <ellipse fill="#E1E2E2" cx="1141" cy="552.1" rx="2" ry="2.1" />
                    <ellipse fill="#E1E2E2" cx="1109.9" cy="746.3" rx="2" ry="2.1" />
               </g>
               <g id="stars-3">
                    <ellipse fill="#E1E2E2" cx="1338.9" cy="702.2" rx="2.601" ry="2.7" />
                    <ellipse fill="#E1E2E2" cx="1402.5" cy="800.7" rx="2.6" ry="2.7" />
                    <ellipse fill="#E1E2E2" cx="1360.5" cy="877.7" rx="2.6" ry="2.7" />
                    <ellipse fill="#E1E2E2" cx="1366.699" cy="873.1" rx="2" ry="2.1" />
                    <ellipse fill="#E1E2E2" cx="1333.1" cy="802.1" rx="2" ry="2.1" />
                    <ellipse fill="#E1E2E2" cx="1240.4" cy="828.8" rx="2" ry="2.1" />
                    <ellipse fill="#E1E2E2" cx="1336.4" cy="935.5" rx="2" ry="2.1" />
                    <ellipse fill="#E1E2E2" cx="1277.3" cy="756.4" rx="2" ry="2.1" />
                    <ellipse fill="#E1E2E2" cx="1246.1" cy="950.6" rx="2" ry="2.1" />
                    <ellipse fill="#E1E2E2" cx="1124.4" cy="760.8" rx="2.601" ry="2.7" />
                    <ellipse fill="#E1E2E2" cx="1188" cy="859.3" rx="2.6" ry="2.7" />
                    <ellipse fill="#E1E2E2" cx="1146" cy="936.3" rx="2.6" ry="2.7" />
                    <ellipse fill="#E1E2E2" cx="1152.1" cy="931.6" rx="2" ry="2.1" />
                    <ellipse fill="#E1E2E2" cx="1249.199" cy="842.8" rx="2" ry="2.1" />
                    <ellipse fill="#E1E2E2" cx="1118.5" cy="860.7" rx="2" ry="2.1" />
                    <ellipse fill="#E1E2E2" cx="1025.8" cy="887.3" rx="2" ry="2.1" />
                    <ellipse fill="#E1E2E2" cx="1062.699" cy="814.9" rx="2" ry="2.1" />
               </g>
               <g id="stars-2">
                    <ellipse fill="#E1E2E2" cx="960.8" cy="753.4" rx="2.6" ry="2.7" />
                    <ellipse fill="#E1E2E2" cx="1024.4" cy="852" rx="2.601" ry="2.7" />
                    <ellipse fill="#E1E2E2" cx="982.4" cy="929" rx="2.601" ry="2.7" />
                    <ellipse fill="#E1E2E2" cx="988.6" cy="924.3" rx="2" ry="2.1" />
                    <ellipse fill="#E1E2E2" cx="1085.699" cy="835.5" rx="2" ry="2.1" />
                    <ellipse fill="#E1E2E2" cx="955" cy="853.4" rx="2" ry="2.1" />
                    <ellipse fill="#E1E2E2" cx="862.199" cy="880" rx="2" ry="2.1" />
                    <ellipse fill="#E1E2E2" cx="899.199" cy="807.6" rx="2" ry="2.1" />
                    <ellipse fill="#E1E2E2" cx="746.3" cy="812" rx="2.6" ry="2.7" />
                    <ellipse fill="#E1E2E2" cx="809.9" cy="910.5" rx="2.601" ry="2.7" />
                    <ellipse fill="#E1E2E2" cx="871.1" cy="894" rx="2" ry="2.1" />
                    <ellipse fill="#E1E2E2" cx="740.4" cy="911.9" rx="2" ry="2.1" />
                    <ellipse fill="#E1E2E2" cx="647.699" cy="938.6" rx="2" ry="2.1" />
                    <ellipse fill="#E1E2E2" cx="684.6" cy="866.2" rx="2" ry="2.1" />
               </g>
               <g id="stars-1">
                    <ellipse fill="#E1E2E2" cx="625.5" cy="723.2" rx="2.6" ry="2.7" />
                    <ellipse fill="#E1E2E2" cx="689.1" cy="821.7" rx="2.6" ry="2.7" />
                    <ellipse fill="#E1E2E2" cx="647.1" cy="898.7" rx="2.6" ry="2.7" />
                    <ellipse fill="#E1E2E2" cx="653.3" cy="894.1" rx="2" ry="2.1" />
                    <ellipse fill="#E1E2E2" cx="750.4" cy="805.2" rx="2" ry="2.1" />
                    <ellipse fill="#E1E2E2" cx="619.699" cy="823.2" rx="2" ry="2.1" />
                    <ellipse fill="#E1E2E2" cx="527" cy="849.8" rx="2" ry="2.1" />
                    <ellipse fill="#E1E2E2" cx="623" cy="956.5" rx="2" ry="2.1" />
                    <ellipse fill="#E1E2E2" cx="563.9" cy="777.4" rx="2" ry="2.1" />
                    <ellipse fill="#E1E2E2" cx="532.8" cy="971.6" rx="2" ry="2.1" />
                    <ellipse fill="#E1E2E2" cx="411" cy="781.8" rx="2.6" ry="2.7" />
                    <ellipse fill="#E1E2E2" cx="474.6" cy="880.3" rx="2.6" ry="2.7" />
                    <ellipse fill="#E1E2E2" cx="432.6" cy="957.3" rx="2.6" ry="2.7" />
                    <ellipse fill="#E1E2E2" cx="438.699" cy="952.7" rx="2" ry="2.1" />
                    <ellipse fill="#E1E2E2" cx="535.8" cy="863.8" rx="2" ry="2.1" />
                    <ellipse fill="#E1E2E2" cx="405.199" cy="881.7" rx="2" ry="2.1" />
                    <ellipse fill="#E1E2E2" cx="312.4" cy="908.4" rx="2" ry="2.1" />
                    <ellipse fill="#E1E2E2" cx="349.3" cy="836" rx="2" ry="2.1" />
               </g>
               <g id="red-asteroid">
                    <path fill="#DB4963" d="M259.3,86.7c18.6,30,9.2,71.2-18.3,94.3c-23,18-52,18-79,16c-2.7-0.1-5.2-0.5-7.601-1.1
           c11.101,14.8,27.5,25.7,47.101,29.4c41.6,7.9,81.8-19.4,89.699-61.1C297.1,133.4,283.6,103.4,259.3,86.7z" />
                    <path fill="#F05B6F" d="M241,181c27.5-23.1,36.899-64.4,18.3-94.3c-8.5-5.9-18.4-10.1-29.2-12.2c-41.6-7.9-81.8,19.4-89.7,61.1
           c-4.199,22,1.5,43.6,13.9,60.3c2.4,0.6,4.9,1,7.6,1.1C189,199,218,199,241,181z" />
                    <circle fill="#F05B6F" cx="276.9" cy="197.6" r="4.5" />
                    <circle fill="#DB4963" cx="282.8" cy="111.3" r="3" />

                    <ellipse transform="matrix(0.9825 0.1865 -0.1865 0.9825 19.2397 -44.3134)" fill="#F05B6F"
                         cx="245.188" cy="80.121" rx="3.7" ry="3.6" />
                    <circle fill="#F05B6F" cx="198.5" cy="75.9" r="3.2" />
                    <circle fill="#DB4963" cx="233.3" cy="224.5" r="3.2" />
                    <circle fill="#F05B6F" cx="139.4" cy="166.9" r="3.2" />

                    <ellipse transform="matrix(0.9825 0.1864 -0.1864 0.9825 19.0488 -31.5876)" fill="#F05B6F"
                         cx="177.514" cy="85.511" rx="6.1" ry="6.7" />

                    <ellipse transform="matrix(0.895 0.446 -0.446 0.895 66.1809 -54.4949)" fill="#F05B6F" cx="148.863"
                         cy="113.352" rx="5" ry="7.6" />
                    <path fill="#F05B6F" d="M133.5,155.4c-3.9-0.7-5.7-8.5-4-17.4s6.2-15.5,10.1-14.8c8.101,1.5,11.5,9.6,9.8,18.5
           C147.7,150.6,143.3,157.3,133.5,155.4z" />
                    <path fill="#DB4963" d="M271.8,92.4c1.6-1.2,5.1,0.9,7.8,4.5c2.7,3.7,3.601,7.6,1.9,8.8c-3.3,2.4-7.5,0.9-10.2-2.8
           C268.7,99.2,267.8,95.3,271.8,92.4z" />
                    <path fill="#DB4963" d="M207.5,229.3c-0.9,2.8-6.9,3.4-13.4,1.3s-10.899-6.1-10-8.9c1.9-5.9,8.3-7.6,14.7-5.5
           C205.3,218.2,209.8,222.1,207.5,229.3z" />
                    <path fill="#DB4963" d="M283,189.9c-4.601-1.7-8.9-10.6-5.5-19.9c5.2-14,15.399-11,16.7-10.6c4.6,1.7,3.5,7.4,0,16.7
           C290.8,185.5,287.7,191.6,283,189.9z" />

                    <ellipse transform="matrix(0.9014 0.433 -0.433 0.9014 110.2441 -54.4886)" fill="#DB4963" cx="174.76"
                         cy="214.813" rx="7.5" ry="4.4" />

                    <ellipse transform="matrix(0.7632 0.6462 -0.6462 0.7632 183.1236 -111.1458)" fill="#9B2F44"
                         cx="243.189" cy="194.248" rx="7.9" ry="17.399" />

                    <ellipse transform="matrix(0.974 0.2267 -0.2267 0.974 36.8617 -42.6309)" fill="#B53A51" cx="204.056"
                         cy="139.189" rx="10.001" ry="13.3" />

                    <ellipse transform="matrix(0.8825 0.4703 -0.4703 0.8825 82.437 -59.6176)" fill="#DB4963"
                         cx="160.545" cy="135.191" rx="3.4" ry="5.699" />

                    <ellipse transform="matrix(0.8189 -0.5739 0.5739 0.8189 -53.7309 130.3163)" fill="#DB4963"
                         cx="179.644" cy="150.304" rx="5.3" ry="8.9" />

                    <ellipse transform="matrix(0.1774 0.9841 -0.9841 0.1774 273.6269 -136.4085)" fill="#B53A51"
                         cx="218.41" cy="95.474" rx="11.599" ry="22.499" />
                    <circle fill="#DB4963" cx="245.6" cy="100.3" r="3.1" />
                    <path fill="#B53A51" d="M251.9,129.7c-2.699-3.1-3.199-7-1.199-8.7s5.699-0.5,8.399,2.7c2.7,3.1,3.2,7,1.2,8.7
           C258.3,134,254.5,132.8,251.9,129.7z" />

                    <ellipse transform="matrix(0.9807 0.1955 -0.1955 0.9807 32.7077 -41.852)" fill="#DB4963"
                         cx="228.344" cy="144.746" rx="5.9" ry="3.7" />
                    <circle fill="#DB4963" cx="219.2" cy="151.6" r="2.3" />

                    <ellipse transform="matrix(0.9825 0.1865 -0.1865 0.9825 40.885 -37.8418)" fill="#B53A51"
                         cx="221.608" cy="198.422" rx="3.7" ry="5.4" />

                    <ellipse transform="matrix(0.8249 0.5652 -0.5652 0.8249 140.1897 -70.1944)" fill="#B53A51"
                         cx="183.412" cy="191.215" rx="20.599" ry="10.999" />

                    <ellipse transform="matrix(0.8981 0.4398 -0.4398 0.8981 106.8412 -98.1246)" fill="#B53A51"
                         cx="265.164" cy="181.491" rx="3.3" ry="6.1" />

                    <ellipse transform="matrix(0.8691 0.4946 -0.4946 0.8691 113.1341 -105.8377)" fill="#B53A51"
                         cx="256.566" cy="160.867" rx="4" ry="6.5" />

                    <ellipse transform="matrix(0.9375 0.3479 -0.3479 0.9375 79.5042 -90.0683)" fill="#B53A51"
                         cx="290.549" cy="176.347" rx="1" ry="11.501" />
                    <path fill="#B53A51" d="M132.4,150.3c-1-0.2-0.8-5.5,0.4-11.9s3-11.4,4-11.2c1,0.2,0.8,5.5-0.4,11.9
           C135.3,145.4,133.5,150.5,132.4,150.3z" />
                    <path fill="#B53A51" d="M187.1,224.8c0.3-0.8,4.101-0.3,8.601,1.3c4.5,1.5,7.8,3.4,7.6,4.2c-0.3,0.8-4.1,0.3-8.6-1.3
           C190.2,227.5,186.8,225.7,187.1,224.8z" />

                    <ellipse transform="matrix(0.5922 0.8058 -0.8058 0.5922 192.8456 -183.3386)" fill="#B53A51"
                         cx="277.562" cy="98.863" rx="5.9" ry="1" />

                    <ellipse transform="matrix(0.9825 0.1864 -0.1864 0.9825 22.9919 -33.1592)" fill="#DB4963"
                         cx="187.86" cy="105.708" rx="3.5" ry="5" />
                    <path fill="#B53A51"
                         d="M184.9,214.4c-2.6-0.5-4.5-2.4-4.1-4.3s2.8-3,5.4-2.5c2.6,0.5,4.5,2.4,4.1,4.3S187.5,214.9,184.9,214.4z" />

                    <ellipse transform="matrix(0.9825 0.1865 -0.1865 0.9825 34.5385 -49.0885)" fill="#9B2F44"
                         cx="278.24" cy="159.074" rx="3" ry="5.8" />

                    <ellipse transform="matrix(0.9824 0.1869 -0.1869 0.9824 35.9357 -47.5998)" fill="#B53A51"
                         cx="270.429" cy="166.797" rx="2" ry="2.2" />

                    <ellipse transform="matrix(0.9372 -0.3487 0.3487 0.9372 -24.6016 104.0031)" fill="#B53A51"
                         cx="276.615" cy="120.344" rx="3.2" ry="4.9" />
               </g>
               <g id="ring-asteroid">
                    <g>
                         <path fill="#ED5826" d="M604,903.4c-26.5,27.5-70.301,28.3-97.801,1.699c-27.5-26.5-28.3-70.3-1.699-97.8
               c26.5-27.5,70.3-28.3,97.8-1.7C629.699,832.2,630.5,876,604,903.4z" />
                         <circle fill="#ED5826" cx="620.3" cy="833" r="4" />
                         <path fill="#ED5826" d="M560.1,787.7c-1,1.1-2.7,1.1-3.8,0.1c-1.101-1-1.101-2.7-0.101-3.8s2.7-1.1,3.801-0.1
               C561.1,785,561.1,786.7,560.1,787.7z" />
                         <path fill="#ED5826" d="M518.4,801.1c-1.3,1.301-3.399,1.4-4.6,0.2c-1.3-1.2-1.3-3.3,0-4.7c1.3-1.3,3.399-1.399,4.6-0.199
               C519.699,797.7,519.699,799.8,518.4,801.1z" />
                         <circle fill="#ED5826" cx="489.9" cy="832" r="2.9" />
                         <path fill="#ED5826" d="M621.1,881c-1.1,1.1-2.9,1.2-4.1,0.1c-1.101-1.1-1.2-2.899-0.101-4.1c1.101-1.1,2.9-1.2,4.101-0.1
               C622.199,878.1,622.199,879.9,621.1,881z" />
                         <circle fill="#ED5826" cx="529.3" cy="921.4" r="2.9" />

                         <ellipse transform="matrix(0.6944 -0.7196 0.7196 0.6944 -464.7231 610.7481)" fill="#ED5826"
                              cx="486.677" cy="852.497" rx="5.5" ry="6.1" />

                         <ellipse transform="matrix(0.8635 -0.5044 0.5044 0.8635 -380.4613 370.226)" fill="#ED5826"
                              cx="493.618" cy="887.868" rx="4.5" ry="6.8" />
                         <path fill="#ED5826" d="M517.699,920.2c-2.5,2.6-9.199,0.1-15.1-5.601c-5.9-5.699-8.6-12.3-6.1-14.899
               c5.1-5.3,12.899-3.9,18.8,1.8C521.1,907.2,523.9,913.7,517.699,920.2z" />
                         <path fill="#ED5826" d="M538.5,784.8c-0.101-1.8,3.199-3.399,7.3-3.6c4.1-0.2,7.5,1.1,7.6,2.899c0.2,3.7-3,6.101-7.1,6.301
               C542.1,790.5,538.699,789.3,538.5,784.8z" />
                         <path fill="#ED5826" d="M609.9,900.9c1.7,2.1-0.8,6.899-5.6,10.699c-4.8,3.801-10,5.2-11.7,3.101c-3.5-4.3-1.6-10,3.1-13.8
               C600.5,897.1,605.699,895.6,609.9,900.9z" />
                         <path fill="#ED5826" d="M617.6,824.5c-3.6,2.6-12.4,1.5-17.7-5.6c-8-10.801-0.7-17.101,0.3-17.801
               c3.601-2.6,7.3,1.101,12.601,8.2C618,816.5,621.1,821.9,617.6,824.5z" />

                         <ellipse transform="matrix(0.8561 -0.5168 0.5168 0.8561 -390.7971 433.3306)" fill="#ED5826"
                              cx="582.785" cy="918.466" rx="6.7" ry="3.899" />
                         <path fill="#C03D27" d="M605.5,871.7c-3.801,1.1-8.9-4.7-11.301-13c-2.5-8.3-1.399-16,2.4-17.101c3.8-1.1,8.9,4.7,11.3,13
               C610.4,863,609.3,870.6,605.5,871.7z" />
                         <path fill="#C03D27" d="M518.3,894.3c-1.5,0.8-3.7-0.5-5.101-3c-1.399-2.5-1.3-5.1,0.2-5.899c1.5-0.801,3.8,0.5,5.101,3
               C519.8,890.9,519.8,893.5,518.3,894.3z" />

                         <ellipse transform="matrix(0.9204 0.3909 -0.3909 0.9204 364.093 -135.3095)" fill="#C03D27"
                              cx="514.411" cy="826.678" rx="10.4" ry="20.299" />
                         <path fill="#C03D27" d="M556.699,818.2C553,818.6,549.8,817.1,549.5,814.8c-0.301-2.3,2.5-4.6,6.199-5
               c3.7-0.399,6.9,1.101,7.2,3.4C563.199,815.6,560.4,817.8,556.699,818.2z" />

                         <ellipse transform="matrix(0.9249 -0.3803 0.3803 0.9249 -299.6 284.1098)" fill="#C03D27"
                              cx="569.259" cy="900.318" rx="18.6" ry="9.9" />
                         <path fill="#C03D27" d="M605.1,838.6c-1.4,0.801-3.8-0.6-5.4-3.199c-1.6-2.601-1.7-5.4-0.2-6.301c1.4-0.8,3.801,0.601,5.4,3.2
               C606.5,834.9,606.6,837.7,605.1,838.6z" />
                         <path fill="#C03D27" d="M585.3,835.4c-1.8,0.899-4.4-0.7-5.9-3.601c-1.5-2.899-1.3-6,0.5-6.899c1.8-0.9,4.4,0.699,5.9,3.6
               C587.199,831.4,587,834.5,585.3,835.4z" />
                         <path fill="#C03D27" d="M617.1,820.5c-0.4,0.3-3.5-3.2-6.9-7.8c-3.399-4.601-5.8-8.601-5.399-8.9c0.399-0.3,3.5,3.2,6.899,7.8
               C615.1,816.2,617.5,820.2,617.1,820.5z" />
                         <path fill="#C03D27" d="M513.3,918.5c-0.601,0.7-4.601-2.1-8.8-6.2c-4.2-4.1-7.101-7.899-6.5-8.6c0.6-0.7,4.6,2.1,8.8,6.2
               C511,913.9,513.9,917.8,513.3,918.5z" />
                         <path fill="#C03D27" d="M596.5,914.1c-0.5-0.6,1.8-3.199,5.199-5.8c3.301-2.6,6.4-4.2,6.9-3.6c0.5,0.6-1.8,3.2-5.2,5.8
               C600,913.1,596.9,914.7,596.5,914.1z" />

                         <ellipse transform="matrix(0.9985 -0.0544 0.0544 0.9985 -41.7923 30.8507)" fill="#C03D27"
                              cx="546.235" cy="783.697" rx="5.3" ry="0.9" />
                         <g>
                              <path fill="#F26A4C" d="M548.6,867.6c-3.6,3.4-10.2,2.301-14.8-2.399c-4.601-4.8-5.3-11.4-1.7-14.9c3.6-3.399,10.2-2.3,14.8,2.4
                   C551.4,857.5,552.199,864.2,548.6,867.6z" />
                              <path fill="#F26A4C" d="M544.6,882.6c0.1,2.601-3.4,4.9-7.9,5c-4.399,0.101-8.1-1.899-8.2-4.5c-0.1-2.6,3.4-4.899,7.9-5
                   C540.9,877.9,544.5,880,544.6,882.6z" />
                              <circle fill="#F26A4C" cx="533.4" cy="806.5" r="2.8" />

                              <ellipse transform="matrix(0.701 -0.7131 0.7131 0.701 -435.0472 648.9071)" fill="#F26A4C"
                                   cx="556.419" cy="843.328" rx="5.3" ry="3.3" />
                              <circle fill="#F26A4C" cx="557.1" cy="853.7" r="2.1" />
                              <path fill="#F26A4C" d="M597.1,878.4c-1.3,1.3-3.9,0.899-5.8-1c-1.9-1.9-2.4-4.4-1.2-5.801c1.3-1.3,3.9-0.899,5.8,1
                   C597.9,874.5,598.4,877.1,597.1,878.4z" />
                              <path fill="#F26A4C" d="M510.3,857.8c-1.2,1.2-3.601,0.8-5.4-0.899c-1.8-1.7-2.3-4.2-1.1-5.4s3.6-0.8,5.399,0.9
                   C511,854.2,511.5,856.6,510.3,857.8z" />
                              <path fill="#F26A4C" d="M587.5,910.6c-1.7,1.7-4,2.2-5.301,1C581,910.4,581.3,908,583,906.3c1.699-1.7,4-2.2,5.3-1
                   C589.5,906.5,589.199,908.8,587.5,910.6z" />
                              <path fill="#F26A4C" d="M595.6,816.5c-1,1.1-3.6,0.3-5.6-1.6c-2.101-2-2.9-4.5-1.801-5.601c1-1.1,3.601-0.3,5.601,1.601
                   C595.8,813,596.6,815.4,595.6,816.5z" />

                              <ellipse transform="matrix(0.6944 -0.7196 0.7196 0.6944 -410.4731 678.7562)"
                                   fill="#F26A4C" cx="593.861" cy="822.626" rx="1.8" ry="1.9" />

                              <ellipse transform="matrix(0.2218 -0.9751 0.9751 0.2218 -337.8904 1166.6683)"
                                   fill="#F26A4C" cx="561.947" cy="795.015" rx="2.9" ry="4.4" />
                         </g>
                         <path fill="none" d="M593.699,872.9L577,856.4l-24.301-15.7l-26.199-13l-25.9-16.2c0,0,2.2-2.4,4.5-4.8
               c-12.3-4.7-22.5-6.9-28.8-5.9c-18.101,2.9,3.6,31.8,42.899,63.601C558.5,896.2,605,919.7,623.1,916.8
               c11.9-1.899,8.5-14.7-6.4-32.3c-0.8,1.8-1.6,3.6-2.1,4.5L593.699,872.9z" />
                    </g>
                    <path fill="#F1E00A"
                         d="M617,884c-0.101,0.2-0.101,0.3-0.2,0.5c14.899,17.6,18.3,30.4,6.399,32.3
           c-18.1,2.9-64.6-20.6-103.899-52.399C480,832.6,458.4,803.7,476.4,800.8c6.3-1,16.5,1.3,28.8,5.9c0.601-0.601,1.2-1.3,1.8-1.9
           c-16.8-7.5-30.8-11.3-39.399-10c-20.4,3.2-1,35,43.3,70.8c44.3,35.9,96.7,62.301,117.1,59.101C642.4,922.5,637,906.1,617,884z" />
               </g>
               <g id="purple-asteroid">
                    <g>
                         <g>
                              <circle fill="#753E81" cx="812.6" cy="82" r="44.5" />
                              <circle fill="#753E81" cx="815.8" cy="126.8" r="2.6" />
                              <circle fill="#753E81" cx="855.3" cy="95.7" r="1.7" />

                              <ellipse transform="matrix(0.5209 0.8536 -0.8536 0.5209 466.7368 -696.7766)"
                                   fill="#753E81" cx="854.063" cy="67.385" rx="2.2" ry="2.101" />
                              <circle fill="#753E81" cx="837.699" cy="45.7" r="1.9" />
                              <circle fill="#753E81" cx="787.3" cy="118.5" r="1.9" />
                              <circle fill="#753E81" cx="775.6" cy="55.7" r="1.9" />
                              <path fill="#753E81" d="M822.1,42.4c-1-1.7-0.4-3.9,1.5-5.1c1.8-1.1,4.2-0.7,5.2,1c1,1.7,0.399,3.9-1.5,5.1
                   C825.4,44.6,823.1,44.1,822.1,42.4z" />

                              <ellipse transform="matrix(0.2696 0.963 -0.963 0.2696 623.4598 -744.1226)" fill="#753E81"
                                   cx="802.24" cy="38.91" rx="2.9" ry="4.4" />

                              <ellipse transform="matrix(0.2837 0.9589 -0.9589 0.2837 636.5425 -672.965)" fill="#753E81"
                                   cx="768.703" cy="89.571" rx="4.3" ry="2.5" />

                              <ellipse transform="matrix(0.0328 0.9995 -0.9995 0.0328 888.6408 -696.4257)"
                                   fill="#4B1E62" cx="804.147" cy="110.927" rx="4.6" ry="10.101" />
                              <path fill="#4B1E62" d="M805.9,76.5c-1.6-2.8,0.2-6.8,3.9-8.8c3.7-2.1,8-1.5,9.6,1.3c1.601,2.8-0.2,6.8-3.899,8.8
                   C811.699,79.9,807.5,79.3,805.9,76.5z" />

                              <ellipse transform="matrix(0.2436 0.9699 -0.9699 0.2436 654.0144 -733.67)" fill="#4B1E62"
                                   cx="797.369" cy="52.459" rx="1.9" ry="3.3" />

                              <ellipse transform="matrix(0.975 0.2224 -0.2224 0.975 34.8008 -175.8888)" fill="#5F2F6A"
                                   cx="798.374" cy="66.577" rx="3.1" ry="5.201" />

                              <ellipse transform="matrix(-0.6108 0.7918 -0.7918 -0.6108 1397.2321 -563.0526)"
                                   fill="#5F2F6A" cx="837.005" cy="61.889" rx="6.7" ry="13.1" />
                              <circle fill="#4B1E62" cx="845.6" cy="75.5" r="1.8" />

                              <ellipse transform="matrix(-0.1348 0.9909 -0.9909 -0.1348 1040.1113 -728.1843)"
                                   fill="#4B1E62" cx="837.973" cy="90.01" rx="4.3" ry="2.7" />

                              <ellipse transform="matrix(0.5128 0.8585 -0.8585 0.5128 472.6411 -662.1927)"
                                   fill="#5F2F6A" cx="819.775" cy="85.345" rx="3.4" ry="2.1" />
                              <circle fill="#5F2F6A" cx="813.199" cy="84.1" r="1.3" />

                              <ellipse transform="matrix(0.5207 0.8537 -0.8537 0.5207 468.7483 -628.2775)"
                                   fill="#5F2F6A" cx="793.925" cy="103.334" rx="2.2" ry="3.1" />
                              <path fill="#4B1E62" d="M775.9,84.9c-0.899-6.5,1.2-12.2,4.7-12.7s7.1,4.4,7.9,11c0.899,6.5-1.2,12.2-4.7,12.7
                   S776.8,91.5,775.9,84.9z" />

                              <ellipse transform="matrix(0.2762 0.9611 -0.9611 0.2762 703.111 -702.8556)" fill="#5F2F6A"
                                   cx="818.224" cy="115.411" rx="1.9" ry="3.6" />

                              <ellipse transform="matrix(0.2161 0.9764 -0.9764 0.2161 747.0787 -722.98)" fill="#4B1E62"
                                   cx="823.796" cy="103.775" rx="2.3" ry="3.8" />

                              <ellipse transform="matrix(0.5207 0.8537 -0.8537 0.5207 438.3638 -675.4284)"
                                   fill="#5F2F6A" cx="820.75" cy="52.713" rx="2" ry="2.9" />

                              <ellipse transform="matrix(0.5209 0.8536 -0.8536 0.5209 450.1823 -616.824)" fill="#4B1E62"
                                   cx="774.587" cy="92.631" rx="2.8" ry="2" />

                              <ellipse transform="matrix(0.5208 0.8537 -0.8537 0.5208 495.0647 -657.2042)"
                                   fill="#5F2F6A" cx="832.946" cy="112.383" rx="1.8" ry="3.301" />

                              <ellipse transform="matrix(0.5204 0.8539 -0.8539 0.5204 492.0674 -652.1368)"
                                   fill="#4B1E62" cx="826.625" cy="112.014" rx="1.2" ry="1.3" />

                              <ellipse transform="matrix(0.8873 0.4613 -0.4613 0.8873 140.3116 -380.7034)"
                                   fill="#4B1E62" cx="848.982" cy="96.692" rx="1.8" ry="2.801" />
                         </g>
                         <circle fill="#5F2F6A" cx="808.1" cy="46.7" r="1.9" />
                    </g>

                    <ellipse transform="matrix(-0.6211 -0.7837 0.7837 -0.6211 1272.4238 847.4944)" fill="#753E81"
                         cx="841.061" cy="116.188" rx="4.3" ry="6.199" />
               </g>
               <g id="left-meteor">
                    <path fill="#FFCB05"
                         d="M142.4,773.6c1.4-1.199,3.101-1.6,3.801-0.899l7.199,8.399c-0.3-0.699,0-1.699,0.801-2.399
           c0.699-0.601,1.5-0.8,2.199-0.5L147.7,768.1c-0.601-0.8-0.4-2,0.5-2.8c0.699-0.6,1.5-0.7,2.1-0.5l-14.7-17.1
           c-0.6-0.8-0.399-2,0.5-2.8c0.9-0.801,2.2-0.801,2.9-0.101l16.1,18.8c-0.6-0.8-0.399-2,0.5-2.8c0.9-0.8,2.101-0.8,2.8-0.2
           L128.2,725.4c-0.601-0.801-0.4-2,0.5-2.801c0.899-0.8,2.199-0.8,2.899-0.1l47.2,55h0.1l-27.5-32c-0.6-0.7-0.399-2,0.5-2.8
           c0.9-0.8,2.2-0.8,2.9-0.101l17.3,20.101c0.101-0.3,0.3-0.601,0.601-0.9c0.8-0.7,1.899-0.7,2.6-0.1l-26.9-31.4
           c-0.6-0.8-0.399-2,0.5-2.8c0.9-0.8,2.2-0.8,2.9-0.1L166,744c-0.101-0.6,0.2-1.3,0.8-1.8c0.5-0.4,1-0.601,1.5-0.5l-27.8-32.4
           c-0.601-0.8-0.4-2,0.5-2.8c0.899-0.8,2.2-0.8,2.899-0.1L161.2,726.6c-0.301-0.699,0-1.6,0.699-2.199
           c0.601-0.5,1.301-0.601,1.9-0.5l-7.3-8.5c-0.601-0.7-0.2-2.2,1-3.2s2.7-1.3,3.399-0.5l22.301,26c-0.101-0.601,0.199-1.3,0.8-1.8
           c0.7-0.601,1.6-0.7,2.2-0.301l-9.4-10.899c-0.6-0.7-0.5-1.9,0.4-2.601c0.8-0.699,2-0.699,2.699,0l29.7,34.601l0.2-0.101L166.2,706
           h-0.4L131,664.9c-0.9-1.101-2.8-0.9-4.3,0.399s-2,3.2-1.101,4.2l30.601,35.6l0,0c0,0-0.2,2.301-2.4,2.101L88.4,631
           c-0.899-1-2.8-0.9-4.3,0.4c-1.5,1.3-2,3.199-1.1,4.199l49.5,57.7c0,0-0.3,1.5-1.3,4.3L43.2,595c-0.9-1.1-2.801-0.9-4.301,0.4
           c-1.5,1.3-2,3.199-1.1,4.199l77.5,90.301l-8.2-6.101l-3.6-4.2c-0.3-1-0.8-2.1-1.601-1.899L47.2,614c-0.9-1.1-2.801-0.9-4.301,0.4
           c-1.5,1.3-2,3.199-1.1,4.199l70.1,81.7l0,0c0,0,0,1-1.199,1.3l0,0L51,632c-0.9-1.1-2.8-0.9-4.3,0.4c-1.5,1.3-2,3.2-1.101,4.2
           l71.5,83.3l0,0c0,0-0.2,1.7-2,1.5l0,0L70.8,669.8c-0.9-1.1-2.8-0.899-4.3,0.4s-2,3.2-1.101,4.2l74.5,86.8l-0.899,1.9l-26.2-30.5
           c-0.9-1-2.8-0.9-4.3,0.399s-2,3.2,0.899,6.4l26.4,30.5l-0.1,0.2l5.199,6.1C140.6,775.9,141.2,774.6,142.4,773.6z" />
                    <path fill="#FFCB05" d="M163.4,803.2L196.7,842L163.4,803.2z" />
                    <path fill="#FBAD18" d="M247,799.9l-37.4-43.4l0,0l-0.2,0.1L179.7,722c-0.601-0.7-1.801-0.8-2.7,0c-0.8,0.7-1,1.9-0.4,2.6
           l9.4,10.9c-0.601-0.4-1.5-0.3-2.2,0.3c-0.6,0.5-0.8,1.2-0.8,1.8l-22.3-26c-0.601-0.8-2.101-0.5-3.4,0.5c-1.2,1-1.7,2.5-1,3.2
           l7.3,8.5c-0.6-0.2-1.3,0-1.899,0.5c-0.7,0.601-0.9,1.5-0.7,2.2l-17.3-20.2c-0.601-0.8-1.9-0.7-2.9,0.101c-0.9,0.8-1.2,2.1-0.5,2.8
           l27.8,32.399c-0.5,0-1.1,0.101-1.5,0.5c-0.6,0.5-0.8,1.2-0.8,1.801L151.5,727.3c-0.601-0.8-1.9-0.7-2.9,0.101
           c-0.899,0.8-1.2,2.1-0.5,2.8L175,761.6c-0.601-0.6-1.7-0.6-2.601,0.101c-0.3,0.2-0.5,0.5-0.6,0.899l-17.3-20.1
           c-0.601-0.7-1.9-0.7-2.9,0.1c-0.899,0.801-1.2,2.101-0.5,2.801l27.5,32h-0.1l-47.2-55c-0.6-0.801-1.9-0.7-2.9,0.1
           c-0.899,0.8-1.199,2.1-0.5,2.8l30.2,35.2c-0.7-0.6-1.899-0.6-2.8,0.2s-1.2,2-0.5,2.8l-16.1-18.8c-0.601-0.8-1.9-0.7-2.9,0.1
           c-0.9,0.8-1.2,2.101-0.5,2.8L150,764.7c-0.7-0.2-1.5,0-2.101,0.5c-0.899,0.8-1.199,2.1-0.5,2.8l8.7,10.1c-0.7-0.2-1.5,0-2.2,0.5
           c-0.8,0.7-1.1,1.7-0.8,2.4l-7.2-8.4c-0.6-0.8-2.3-0.399-3.8,0.9c-1.2,1-1.8,2.3-1.7,3.1c0,0.2,0.101,0.4,0.2,0.5L163,803l0,0
           l33.3,38.8c0.8,0.9,1.7,1.8,2.7,2.7l0,0c0.6,0.7,7.6,7.4,10.2,8.1c9,5.4,20.5,7.601,33.3-2.7C265.6,829,255.3,810,247,799.9z
            M211.5,845.4c-11.4-7.5-14.601-22.801-7.2-34.101S227,796.9,238.4,804.4c11.4,7.5,14.601,22.8,7.2,34.1
           C238.1,849.8,222.9,852.9,211.5,845.4z" />
                    <path fill="#F47D20" d="M238.4,804.5c-11.399-7.5-26.699-4.4-34.1,6.9c-7.4,11.3-4.2,26.6,7.2,34.1c11.399,7.5,26.7,4.4,34.1-6.9
           C253,827.2,249.8,812,238.4,804.5z M240.9,835.4c-5.8,8.699-17.6,11.1-26.399,5.3s-11.3-17.601-5.5-26.3
           c5.8-8.7,17.6-11.101,26.399-5.301C244.2,814.9,246.6,826.7,240.9,835.4z" />
                    <path fill="#FBAD18" d="M235.4,809.1c-8.8-5.8-20.6-3.399-26.399,5.301c-5.8,8.699-3.3,20.5,5.5,26.3s20.6,3.399,26.399-5.3
           C246.6,826.7,244.2,814.9,235.4,809.1z M236.8,833c-4.3,6.5-13.1,8.3-19.6,4c-6.601-4.3-8.4-13.1-4.101-19.6
           s13.101-8.301,19.601-4C239.2,817.8,241.1,826.5,236.8,833z" />

                    <ellipse transform="matrix(-0.8351 -0.5501 0.5501 -0.8351 -41.2971 1638.0852)" fill="#FFF200"
                         cx="224.875" cy="825.232" rx="14.2" ry="14.099" />
               </g>
               <g id="bottom-right-meteor">
                    <path fill="#FFCB05" d="M1238.4,864.4c1-0.9,2.2-1.2,2.7-0.601l5.1,5.9c-0.199-0.5,0-1.2,0.5-1.7c0.5-0.4,1.101-0.5,1.5-0.4
           l-6.1-7.1c-0.5-0.5-0.3-1.4,0.4-2c0.5-0.4,1-0.5,1.5-0.4l-10.301-12c-0.5-0.5-0.3-1.399,0.4-2c0.7-0.6,1.5-0.6,2-0.1l11.3,13.1
           c-0.399-0.5-0.3-1.399,0.4-1.899c0.6-0.5,1.5-0.601,1.899-0.101l-21.1-24.6c-0.5-0.5-0.3-1.4,0.4-2c0.699-0.6,1.5-0.6,2-0.1
           l33,38.5l0,0l-19.2-22.4c-0.5-0.5-0.3-1.4,0.399-2c0.7-0.6,1.601-0.6,2-0.1l12.101,14.1c0.1-0.2,0.2-0.4,0.399-0.6
           c0.601-0.5,1.4-0.5,1.801-0.101l-18.801-22c-0.5-0.5-0.3-1.399,0.4-2c0.7-0.6,1.5-0.6,2-0.1l10,11.6c0-0.399,0.1-0.899,0.5-1.2
           c0.3-0.3,0.7-0.399,1.1-0.399L1237.3,819.1c-0.5-0.5-0.3-1.399,0.399-2c0.7-0.6,1.5-0.6,2-0.1l12.101,14.1c-0.2-0.5,0-1.1,0.5-1.5
           c0.399-0.3,0.899-0.399,1.3-0.3l-5.1-6c-0.5-0.5-0.101-1.5,0.699-2.3c0.801-0.7,1.9-0.9,2.301-0.4l15.6,18.2
           c-0.1-0.399,0.1-0.899,0.5-1.3c0.5-0.4,1.1-0.5,1.6-0.2l-6.6-7.6c-0.4-0.5-0.3-1.3,0.3-1.9c0.601-0.5,1.4-0.5,1.9,0l20.8,24.2
           l0.101-0.1L1255,817h-0.301l-24.3-28.8c-0.6-0.7-2-0.601-3,0.3s-1.4,2.2-0.8,3l21.399,24.9l0,0c0,0-0.199,1.6-1.699,1.5
           l-45.7-53.301c-0.6-0.699-2-0.6-3,0.301c-1,0.899-1.4,2.199-0.8,3l34.699,40.399c0,0-0.199,1-0.899,3l-61.601-71.8
           c-0.6-0.7-2-0.6-3,0.3c-1,0.9-1.399,2.2-0.8,3l54.2,63.2l-5.7-4.3l-2.5-2.9c-0.2-0.7-0.6-1.5-1.1-1.3l-38.301-44.6
           c-0.6-0.7-2-0.601-3,0.3c-1,0.899-1.399,2.2-0.8,3l49.101,57.2l0,0c0,0,0,0.699-0.9,0.899l0,0l-41.8-48.7
           c-0.601-0.699-2-0.6-3,0.301c-1,0.899-1.4,2.199-0.8,3l50,58.3l0,0c0,0-0.101,1.2-1.4,1.1l0,0l-31-36.1c-0.6-0.7-2-0.601-3,0.3
           s-1.4,2.2-0.8,3l52.1,60.7l-0.6,1.3l-18.301-21.3c-0.6-0.7-2-0.601-3,0.3s-1.399,2.2,0.601,4.5l18.399,21.3v0.101l3.7,4.3
           C1237.1,866,1237.5,865.1,1238.4,864.4z" />
                    <path fill="#FFCB05" d="M1253,885l23.3,27.2L1253,885z" />
                    <path fill="#FBAD18"
                         d="M1311.5,882.8L1285.4,852.4l0,0l-0.1,0.1l-20.8-24.2c-0.4-0.5-1.301-0.5-1.9,0s-0.7,1.3-0.3,1.9l6.6,7.6
           c-0.4-0.3-1.1-0.2-1.6,0.2c-0.4,0.3-0.601,0.8-0.5,1.3l-15.601-18.2c-0.5-0.5-1.5-0.399-2.3,0.4c-0.8,0.7-1.2,1.7-0.7,2.3l5.101,6
           c-0.4-0.1-0.9,0-1.301,0.3c-0.5,0.4-0.699,1-0.5,1.5l-12.1-14.1c-0.5-0.5-1.3-0.5-2,0.1c-0.7,0.601-0.8,1.4-0.4,2l19.4,22.601
           c-0.4,0-0.7,0.1-1.1,0.399c-0.4,0.301-0.601,0.801-0.5,1.2l-10-11.6c-0.5-0.5-1.301-0.5-2,0.1c-0.7,0.601-0.801,1.4-0.4,2l18.8,22
           c-0.399-0.5-1.199-0.399-1.8,0.101c-0.2,0.199-0.3,0.399-0.4,0.6l-12.1-14.1c-0.4-0.5-1.3-0.5-2,0.1s-0.8,1.4-0.4,2l19.2,22.4l0,0
           l-33-38.5c-0.5-0.5-1.3-0.5-2,0.1s-0.8,1.4-0.4,2l21.101,24.6c-0.5-0.399-1.3-0.399-1.9,0.101c-0.6,0.6-0.8,1.399-0.399,1.899
           l-11.301-13.1c-0.5-0.5-1.3-0.5-2,0.1c-0.699,0.601-0.8,1.4-0.399,2l10.3,12c-0.5-0.1-1,0-1.5,0.4c-0.7,0.6-0.8,1.4-0.4,2
           l6.101,7.1c-0.5-0.2-1.101,0-1.5,0.4c-0.5,0.5-0.7,1.2-0.5,1.7l-5.101-5.9c-0.5-0.5-1.6-0.2-2.699,0.6
           c-0.801,0.7-1.301,1.601-1.2,2.2c0,0.101,0.1,0.2,0.1,0.3L1253,885l0,0l23.3,27.2c0.6,0.6,1.2,1.3,1.899,1.899l0,0
           c0.4,0.5,5.301,5.2,7.101,5.7c6.3,3.8,14.3,5.3,23.3-1.899C1324.5,903.1,1317.3,889.8,1311.5,882.8z M1286.699,914.6
           c-8-5.3-10.199-15.899-5-23.8c5.2-7.899,15.9-10.1,23.9-4.8s10.2,15.9,5,23.8C1305.3,917.7,1294.6,919.8,1286.699,914.6z" />
                    <path fill="#F47D20" d="M1305.5,885.9c-8-5.301-18.7-3.101-23.9,4.8c-5.2,7.899-3,18.6,5,23.8s18.7,3.1,23.9-4.8
           C1315.699,901.9,1313.5,891.2,1305.5,885.9z M1307.199,907.6c-4,6.101-12.3,7.801-18.399,3.7c-6.2-4.1-7.9-12.3-3.9-18.399
           c4-6.101,12.3-7.801,18.4-3.7C1309.5,893.2,1311.3,901.5,1307.199,907.6z" />
                    <path fill="#FBAD18" d="M1303.4,889.2c-6.2-4.101-14.399-2.4-18.399,3.7c-4,6.1-2.301,14.399,3.899,18.399
           c6.2,4.101,14.4,2.4,18.4-3.7C1311.3,901.5,1309.5,893.2,1303.4,889.2z M1304.4,905.9c-3,4.6-9.1,5.8-13.7,2.8
           c-4.6-3-5.899-9.2-2.899-13.7c3-4.6,9.1-5.8,13.7-2.8C1306.1,895.2,1307.4,901.4,1304.4,905.9z" />
                    <ellipse fill="#FFF200" cx="1296.007" cy="900.515" rx="9.9" ry="9.9" />
               </g>
               <g id="right-meteor">
                    <path fill="#F7941E"
                         d="M1260.1,278.6c1.2,2.7-1.9,13.3,0.7,19.1c2.6,5.8,5.399,6.9,12.3,9.5c7,2.7,14.1,5.1,17.9,3.4
           c3.899-1.7,9-6.8,17.1-10.4c8.1-3.6,7.3-3.3,13.9-10.3c6.6-7.1,8.399-13.4,6.1-18.4c-2.2-5-6.4-6.6-11.4-8.6
           c-5-1.9-5-1.9-11.699-4.5c-6.7-2.6-10.301-4-14.5-5.6c-4.2-1.6-6.2-6.2-10.9-4.2c-4.6,2.1-8.2-0.3-10,4.5
           c-1.8,4.7-5.1,3.8-6.3,6.7c-1.101,2.9-1.601,1.9-0.2,5c1.4,3.1,3.2,4.2,2.6,5.8C1265,272.2,1258.699,275.7,1260.1,278.6z" />
                    <path fill="#DB6A1D" d="M1316.6,262.9c-5-1.9-5-1.9-11.7-4.5s-10.3-4-14.5-5.6c-4.2-1.6-6.2-6.2-10.899-4.2
           c-4.601,2.1-8.2-0.3-10,4.5c-1.801,4.7-5.101,3.8-6.301,6.7c-1.1,2.9-1.6,1.9-0.199,5c1.399,3.1,3.199,4.2,2.6,5.8s-6.9,5-5.6,8
           c1.199,2.7-1.9,13.3,0.699,19.1c0,0,1.601,2.5,6.601-2.9c5-5.5,15.399-10.1,18.5-11.5c3.1-1.4,6.5-1,13.1-1.7
           c6.6-0.6,11,1.3,12.8-3.4C1313.5,273.6,1326.1,266.6,1316.6,262.9z" />
                    <path fill="#FAA819" d="M1322.5,266.7c1-0.6,1.5-1.6,1.1-2.2l-16.2-24.9c-0.399-0.6-1.5-0.6-2.5,0.1l0,0c-1,0.6-1.5,1.6-1.1,2.2
           l16.2,24.9C1320.4,267.3,1321.5,267.3,1322.5,266.7L1322.5,266.7z" />
                    <path fill="#FAA819" d="M1301.8,234.8c1-0.6,1.399-1.7,0.899-2.5l-19.399-30c-0.5-0.7-1.601-0.8-2.601-0.2l0,0
           c-1,0.6-1.399,1.7-0.899,2.5l19.399,30C1299.6,235.3,1300.8,235.4,1301.8,234.8L1301.8,234.8z" />
                    <path fill="#FAA819" d="M1277,196.5c1-0.6,1.6-1.4,1.5-1.6l-7.4-11.4c-0.2-0.3-1.1,0-2.1,0.7l0,0c-1,0.6-1.601,1.4-1.4,1.6
           l7.4,11.4C1275,197.4,1276,197.1,1277,196.5L1277,196.5z" />
                    <path fill="#FAA819" d="M1310.3,265.5c1-0.6,1.399-1.8,0.899-2.6l-21-32.4c-0.5-0.8-1.699-0.9-2.699-0.3l0,0
           c-1,0.6-1.4,1.8-0.9,2.6l21,32.4C1308.199,266,1309.4,266.1,1310.3,265.5L1310.3,265.5z" />
                    <path fill="#FAA819" d="M1282.5,222.6c1-0.6,1.199-2,0.5-3.1l-28.7-44.4c-0.7-1.1-2-1.4-3-0.8l0,0c-1,0.6-1.2,2-0.5,3.1l28.7,44.4
           C1280.199,222.9,1281.6,223.2,1282.5,222.6L1282.5,222.6z" />
                    <path fill="#FAA819" d="M1245.8,165.9c1-0.6,1.6-1.4,1.3-1.8l-9.7-15c-0.2-0.4-1.2-0.1-2.2,0.5l0,0c-1,0.6-1.6,1.4-1.3,1.8l9.7,15
           C1243.8,166.7,1244.8,166.5,1245.8,165.9L1245.8,165.9z" />
                    <path fill="#FAA819" d="M1229,140c1-0.6,1.6-1.4,1.399-1.8l-9.7-15c-0.199-0.4-1.199-0.1-2.199,0.5l0,0c-1,0.6-1.601,1.4-1.4,1.8
           l9.7,15C1227.1,140.8,1228,140.6,1229,140L1229,140z" />
                    <path fill="#FAA819" d="M1291.3,255.2c1-0.6,1.3-1.8,0.8-2.7l-22.6-34.9c-0.5-0.8-1.801-1-2.801-0.4l0,0c-1,0.6-1.3,1.8-0.8,2.7
           l22.601,34.9C1289.1,255.6,1290.3,255.8,1291.3,255.2L1291.3,255.2z" />
                    <path fill="#FAA819" d="M1310.199,284.2c1-0.6,1.5-1.5,1.2-2l-12.6-19.4c-0.301-0.5-1.301-0.3-2.301,0.3l0,0
           c-1,0.6-1.5,1.5-1.199,2l12.6,19.4C1308.1,285,1309.199,284.9,1310.199,284.2L1310.199,284.2z" />
                    <path fill="#FAA819" d="M1260.8,208c1-0.6,1.3-1.9,0.6-2.9L1235,164.3c-0.601-1-1.9-1.3-2.9-0.6l0,0c-1,0.6-1.3,1.9-0.6,2.9
           l26.399,40.8C1258.5,208.4,1259.8,208.6,1260.8,208L1260.8,208z" />
                    <path fill="#FAA819" d="M1288.1,271.3c1-0.6,1.3-1.9,0.7-2.8l-24.5-37.8c-0.601-0.9-1.9-1.1-2.801-0.5l0,0
           c-1,0.6-1.3,1.9-0.699,2.8l24.5,37.8C1285.9,271.7,1287.1,272,1288.1,271.3L1288.1,271.3z" />
                    <path fill="#FAA819" d="M1255.1,220.4c1-0.6,1.5-1.5,1.2-2l-13.2-20.4c-0.3-0.5-1.4-0.4-2.3,0.3l0,0c-1,0.6-1.5,1.5-1.2,2
           l13.2,20.4C1253,221.1,1254.1,221,1255.1,220.4L1255.1,220.4z" />
                    <path fill="#FAA819" d="M1196,129.3c1-0.6,1.6-1.5,1.3-1.8l-10.2-15.7c-0.2-0.4-1.2-0.2-2.2,0.5l0,0c-1,0.6-1.6,1.5-1.3,1.8
           l10.2,15.7C1194.1,130.1,1195,129.9,1196,129.3L1196,129.3z" />
                    <path fill="#FAA819" d="M1235.3,189.9c1-0.6,1.2-2,0.5-3.1l-29-44.8c-0.7-1.1-2.101-1.4-3-0.8l0,0c-1,0.6-1.2,2-0.5,3.1l29,44.8
           C1233,190.2,1234.3,190.5,1235.3,189.9L1235.3,189.9z" />
                    <path fill="#FAA819" d="M1268.8,265.7c1-0.6,1.399-1.7,0.899-2.4l-19.399-29.9c-0.5-0.7-1.601-0.8-2.601-0.2l0,0
           c-1,0.6-1.399,1.7-0.899,2.4l19.399,29.9C1266.699,266.3,1267.9,266.3,1268.8,265.7L1268.8,265.7z" />
                    <path fill="#FAA819" d="M1239.699,220.8c1-0.6,1.301-1.9,0.601-2.9l-26.4-40.8c-0.6-1-1.9-1.3-2.9-0.6l0,0c-1,0.6-1.3,1.9-0.6,2.9
           l26.4,40.8C1237.4,221.1,1238.699,221.4,1239.699,220.8L1239.699,220.8z" />
                    <path fill="#FAA819" d="M1205,167.2c1-0.6,1.399-1.7,0.899-2.5l-19.7-30.4c-0.5-0.7-1.6-0.8-2.6-0.2l0,0c-1,0.6-1.4,1.7-0.9,2.5
           l19.7,30.4C1202.9,167.8,1204,167.9,1205,167.2L1205,167.2z" />
                    <path fill="#FAA819" d="M1176.6,123.4c1-0.6,1.4-1.7,0.9-2.5l-19.7-30.4c-0.5-0.7-1.601-0.8-2.601-0.2l0,0
           c-1,0.6-1.399,1.7-0.899,2.5l19.7,30.4C1174.5,124,1175.6,124.1,1176.6,123.4L1176.6,123.4z" />
                    <path fill="#FAA819" d="M1270.6,289.7c1-0.7,1.3-1.8,0.9-2.5l-20.7-30.9c-0.5-0.7-1.7-0.8-2.7-0.2l0,0c-1,0.7-1.3,1.8-0.9,2.5
           l20.7,30.9C1268.4,290.3,1269.6,290.4,1270.6,289.7L1270.6,289.7z" />
                    <path fill="#FAA819" d="M1242.1,246.3c1-0.6,1.3-2,0.6-2.9l-26.8-41.4c-0.6-1-2-1.3-2.9-0.7l0,0c-1,0.6-1.199,2-0.6,2.9l26.8,41.4
           C1239.9,246.6,1241.199,246.9,1242.1,246.3L1242.1,246.3z" />
                    <path fill="#FAA819" d="M1206.8,191.7c1-0.6,1.399-1.7,0.899-2.5l-19.899-30.7c-0.5-0.7-1.7-0.8-2.601-0.2l0,0
           c-1,0.6-1.399,1.7-0.899,2.5l19.899,30.7C1204.6,192.2,1205.8,192.3,1206.8,191.7L1206.8,191.7z" />
                    <path fill="#FAA819" d="M1179,148.8c1-0.6,1.5-1.6,1.199-2.1l-13.5-20.9c-0.3-0.5-1.399-0.4-2.399,0.2l0,0c-1,0.6-1.5,1.6-1.2,2.1
           l13.5,20.9C1176.9,149.5,1178,149.4,1179,148.8L1179,148.8z" />
                    <path display="none" fill="#FAA819" d="M1261.3,295.3c1-0.6,1.3-1.9,0.7-2.9l-25.601-39.5c-0.6-0.9-1.899-1.2-2.899-0.6l0,0
           c-1,0.6-1.301,1.9-0.7,2.9l25.6,39.5C1259,295.6,1260.3,295.9,1261.3,295.3L1261.3,295.3z" />
                    <path fill="#FAA819" d="M1228.199,244.2c1-0.6,1.301-1.9,0.601-2.9l-26.4-40.8c-0.6-1-1.9-1.3-2.9-0.6l0,0c-1,0.6-1.3,1.9-0.6,2.9
           l26.4,40.8C1225.9,244.6,1227.199,244.8,1228.199,244.2L1228.199,244.2z" />
                    <path fill="#FAA819" d="M1193.5,190.7c1-0.6,1.5-1.5,1.3-1.9l-11.4-17.6c-0.3-0.4-1.3-0.3-2.3,0.4l0,0c-1,0.6-1.6,1.5-1.3,1.9
           l11.399,17.6C1191.5,191.5,1192.5,191.3,1193.5,190.7L1193.5,190.7z" />
               </g>
               <g id="right-rocket">
                    <g id="right-rocket-fire">
                         <path fill="#FCB116" d="M1227.6,602.8c0,0,15.6,15.101,17.1,18.7c1.5,3.5-2.8,5.1-5,2.6c0,0,9.9,8.2,3.2,12.4c0,0,8,8.1-0.1,11.5
               c0,0,6,9.2,0.899,9.8c-5.1,0.601-5.699-8.5-5.699-8.5s-7.5,4.5-9.601-5.899c0,0-7.5,1.899-6.7-10.9c0,0-11.5,6.5-6.199-24.5
               L1227.6,602.8z" />
                         <path id="middle-fire_1_" fill="#FFCB05" d="M1227.6,602.8c0,0,13.9,13.601,12.5,16.8c-1.3,3.301-6.9-2.5-6.9-2.5
               s10,9.301,8.9,12.101s-5.6-3.5-5.6-3.5s11.1,15.399,6.8,17.2c0,0-3.101-2.4-4.3-5.301c0,0,6.699,13.9,3.199,15.4
               s-7.6-13.1-7.6-13.1s4,9,0.7,7.6c-3.301-1.3-7.5-11.4-7.5-11.4s1.5,3.101-0.601,4c-2.1,0.9-4.8-14.3-4.8-14.3s-0.4,4.5-3.1,3.4
               c-2.801-1.101-4.9-18.4-3.601-21.4L1227.6,602.8z" />
                         <path id="inner-fire_1_" fill="#FFF200" d="M1223.1,604.7c0,0,8.7,14.7,6.9,19.2c-1.801,4.5-11.101-17.4-11.101-17.4
               L1223.1,604.7z" />
                    </g>
                    <g id="right-rocket-body">
                         <path fill="#F4868B" d="M1170.1,551.7c-1.9-0.4-3.8-0.4-5.6,0c0,0-3.801,38.7,6.199,72.8c4,0,4,0,4,0s1.5-2.9,4.4-6.8
               C1170.199,597.3,1166.4,573.7,1170.1,551.7z" />
                         <path fill="#F05B6F" d="M1170.1,551.7c-3.7,22,0.1,45.6,9,66.1c4.1-5.5,10.9-13,20.2-17.2
               C1213.699,594,1189.3,555.3,1170.1,551.7z" />
                         <path fill="#F05B6F" d="M1213.8,533.1c-8.8,17.5,3.5,59.4,17.6,53.101c8.4-3.7,17.5-4.2,24.2-3.7
               C1245.6,562.5,1232.9,544.3,1213.8,533.1z" />
                         <path fill="#CD4C5E" d="M1268.4,580.9c-18.7-30.2-50.1-53.2-50.1-53.2c-1.9,1.3-3.3,3.1-4.5,5.399c19.1,11.2,31.8,29.4,41.8,49.4
               c6,0.4,10,1.4,10,1.4S1265.699,583.9,1268.4,580.9z" />
                         <path fill="#53316B"
                              d="M1202.1,599.3l2.5,5.601l14.3-6.4c-1-1.8-1.899-3.7-2.8-5.5L1202.1,599.3z" />
                         <path fill="#492960"
                              d="M1228.9,587.2L1216,593c0.899,1.8,1.899,3.7,2.8,5.5l12.6-5.7L1228.9,587.2z" />
                         <path fill="#F05B6F" d="M1231.5,592.8l-12.601,5.7c1.3,2.5,2.7,5,4.101,7.5c-1.4-2.5-2.801-5-4.101-7.5l-14.3,6.4l8.6,7.199
               l18.4-8.1L1231.5,592.8z" />
                         <path fill="#FFFFFF" d="M1160.1,482.6c-0.5,2.7-0.1,5.101-0.1,5.101l4.8,60.2l-0.4,3.699c21.4,14.301,32.7,43,34.8,48.801
               L1216,592.8c-17.7-35.2-29-72.2-52.101-106C1162.9,485.3,1161.5,483.8,1160.1,482.6z" />
                         <path fill="#D5D7D8" d="M1231.699,585.9c-3-5.5-16.8-32.801-13.399-58.2l-3-2.2l-40.101-43.7c0,0-5.399-7.5-11-5
               c-2.6,1.2-3.6,3.5-4.1,5.8c1.4,1.2,2.7,2.601,3.9,4.4c23.1,33.8,34.399,70.8,52.1,106l12.8-5.8
               C1228.9,587.2,1230,586.7,1231.699,585.9z" />
                         <path fill="#38194B" d="M1193.3,517.7c-3.3-8.101-8.5-13.3-16.601-9.9c8.601,15.7,15.5,31.9,22.5,48
               C1199.199,553.1,1198.8,531.3,1193.3,517.7z" />
                         <path fill="#38194B" d="M1176.699,507.8c-0.3,0.101-0.6,0.3-1,0.4c-8.3,4-7.8,11.1-3.8,18.6c7.5,13.9,27.3,29.2,27.3,29.2
               s0-0.1,0-0.3C1192.199,539.7,1185.3,523.5,1176.699,507.8z" />
                         <path fill="#53316B" d="M1194.4,520.9c-3.5-2.2-7.899-3-11.8-1.7c6,12.1,11.3,24.3,16.6,36.6
               C1199.199,553.3,1198.9,534.5,1194.4,520.9z" />
                         <path fill="#53316B" d="M1182.6,519.2c-2,0.7-4,1.899-5.6,3.8c-1.9,2.9-2.9,5.8-2.101,8.7c8.7,12.399,24.3,24.399,24.3,24.399
               s0-0.1,0-0.3C1193.9,543.5,1188.6,531.3,1182.6,519.2z" />
                         <path fill="#492960" d="M1194.4,520.9c-0.399-1.101-0.8-2.2-1.2-3.2c-3.3-6.101-8-9.601-14.899-6.8c1.5,2.8,2.899,5.5,4.3,8.3
               C1186.6,517.9,1190.9,518.7,1194.4,520.9z" />
                         <path fill="#492960" d="M1178.4,510.9c-0.399,0.199-0.8,0.3-1.2,0.5c-7.1,3.5-7.8,9.199-5.3,15.5c0.9,1.6,1.9,3.199,3,4.8
               c-0.8-2.9,0.101-5.8,2.101-8.7c1.6-1.9,3.6-3.1,5.6-3.8C1181.199,516.4,1179.8,513.6,1178.4,510.9z" />
                         <circle fill="#FFFFFF" cx="1177.4" cy="515.8" r="2.8" />
                    </g>
               </g>
               <g id="orange-astronaut">
                    <g>
                         <g>
                              <path fill="#F7941E" d="M695.6,767.2c-70-114.8-33.7-264.601,81-334.601c114.8-70,264.6-33.699,334.6,81
                   c70,114.801,33.7,264.601-81,334.601C915.4,918.3,765.6,882,695.6,767.2z" />
                              <path fill="#F7941E" d="M909,893c-4.101-6.7-2-15.4,4.699-19.4c6.7-4.1,15.301-2,19.4,4.7s2,15.3-4.7,19.4
                   C921.8,901.8,913.1,899.7,909,893z" />
                              <path fill="#F7941E" d="M1128.699,720.8c-2.699-4.399-1.3-10.3,3.101-13c4.399-2.7,10.3-1.3,13,3.101
                   c2.699,4.399,1.3,10.3-3.101,13C1137.199,726.6,1131.4,725.2,1128.699,720.8z" />
                              <path fill="#F7941E" d="M1120.199,566.9c-3.399-5.601-1.8-12.7,3.601-16c5.399-3.301,12.5-1.4,15.8,4.1c3.4,5.5,1.8,12.7-3.6,16
                   C1130.699,574.3,1123.6,572.4,1120.199,566.9z" />
                              <path fill="#F7941E" d="M1031.9,447.5c-2.899-4.8-1.399-11,3.4-14c4.8-2.9,11-1.4,14,3.4c2.899,4.8,1.399,11-3.4,14
                   C1041.1,453.8,1034.8,452.3,1031.9,447.5z" />
                              <path fill="#F7941E" d="M756.6,845.6c-2.9-4.8-1.4-11,3.4-14c4.8-2.899,11-1.399,14,3.4c2.899,4.8,1.399,11-3.4,14
                   C765.8,851.9,759.5,850.4,756.6,845.6z" />
                              <path fill="#F7941E" d="M692.3,502.2c-2.9-4.8-1.4-11,3.399-14c4.801-2.9,11-1.4,14,3.399c2.9,4.801,1.4,11-3.399,14
                   C701.4,508.5,695.199,507,692.3,502.2z" />

                              <ellipse transform="matrix(0.5208 0.8537 -0.8537 0.5208 819.3302 -633.0668)"
                                   fill="#F7941E" cx="973.547" cy="413.256" rx="19.401" ry="21.4" />
                              <path fill="#F7941E" d="M823.9,411.7c-2.399-8.4,6.101-18.2,18.8-21.7c12.7-3.6,25,0.4,27.4,8.8c2.4,8.4-6.1,18.2-18.8,21.7
                   C838.5,424,826.3,420.1,823.9,411.7z" />
                              <path fill="#F7941E" d="M715.3,458.4c-6.5-10.7,8-31.5,32.5-46.5c24.5-14.9,49.7-18.4,56.2-7.7
                   c13.5,22.2,1.699,47.5-22.801,62.399C756.699,481.7,731.8,485.5,715.3,458.4z" />
                              <path fill="#F7941E" d="M952.3,883.7c-5.8-14.5,5.899-43.601,35-55.3c44-17.7,58.8,12.8,60.399,16.699
                   c5.801,14.5-10.199,24-39.3,35.7C979.3,892.5,958.1,898.2,952.3,883.7z" />
                              <path fill="#F7941E" d="M650,685.8c-3.7-12.5-0.801-24.5,6.5-26.6c7.3-2.2,16.3,6.3,20,18.8c3.699,12.5,0.8,24.5-6.5,26.6
                   C662.699,706.8,653.8,698.3,650,685.8z" />
                              <path fill="#D7591E" d="M912.6,797.2L912.6,797.2c0.5,14-23.9,26.1-54.4,27c-30.5,1-55.6-9.5-56-23.4
                   c-0.1-3.8,1.601-7.5,4.8-10.8c8.5-8.9,27.4-15.4,49.5-16.1C887,772.9,912.1,783.3,912.6,797.2z" />
                              <path fill="#AC4D11" d="M912.6,797.2c-8.5,8.899-27.4,15.399-49.5,16.1c-30.5,1-55.5-9.399-56-23.3c8.5-8.9,27.4-15.4,49.5-16.1
                   C887,772.9,912.1,783.3,912.6,797.2z" />
                              <path fill="#D7591E" d="M919.1,617.7c-16.3,9-34.6,8.8-45.5,0.399c-2.7-2.1-5-4.699-6.7-7.699c-8.5-15.301,1.1-36.9,21.5-48.2
                   c19-10.601,40.7-8.4,50.4,4.5c0.7,0.899,1.3,1.8,1.8,2.8C949.1,584.9,939.5,606.4,919.1,617.7z" />
                              <path fill="#D7591E" d="M919.1,617.7c-16.3,9-34.6,8.8-45.5,0.399c-0.7-0.899-1.3-1.8-1.8-2.8c-8.5-15.3,1.1-36.899,21.5-48.2
                   c16.3-9,34.6-8.8,45.5-0.399c0.7,0.899,1.3,1.8,1.8,2.8C949.1,584.9,939.5,606.4,919.1,617.7z" />
                              <path fill="#D7591E" d="M802.9,483.6c-1.399-5.699,5.2-12.3,14.8-14.699c9.601-2.4,18.5,0.3,20,6
                   c1.4,5.699-5.199,12.3-14.8,14.699C813.3,492,804.3,489.3,802.9,483.6z" />
                              <path fill="#E5701E" d="M819.4,583.7c-9-2.101-13.6-16.101-10.1-31.3c3.5-15.2,13.6-25.9,22.7-23.801
                   c9,2.101,13.6,16.101,10.1,31.301C838.6,575.1,828.4,585.8,819.4,583.7z" />
                              <path fill="#D8621D" d="M1093.4,574.1c-2.5,3.301-6,5.601-10.3,7c-16.4,5.601-43.8-2.5-68.6-21.6
                   c-27.4-21.2-42.601-48.8-37.4-66.1c0.7-2.4,1.8-4.601,3.3-6.5c12.4-16,47.7-9.5,78.9,14.6C1090.5,525.5,1105.8,558,1093.4,574.1
                   z" />
                              <path fill="#AC4D11" d="M1083.199,581.1c-16.399,5.601-43.8-2.5-68.6-21.6c-27.4-21.2-42.6-48.8-37.4-66.1
                   c16.4-5.601,43.8,2.5,68.7,21.6C1073.199,536.2,1088.3,563.8,1083.199,581.1z" />
                              <path fill="#D7591E" d="M1075.199,610c-2.8-4.6-1.399-10.6,3.2-13.4c4.6-2.8,10.6-1.399,13.4,3.2
                   c2.8,4.601,1.399,10.601-3.2,13.4C1084,616.1,1078,614.6,1075.199,610z" />
                              <path fill="#D7591E" d="M1027.8,682.2c1.8-12.9,9.8-22.5,17.899-21.4c8.101,1.101,13.301,12.5,11.5,25.4
                   c-1.8,12.899-9.8,22.5-17.899,21.399C1031.199,706.5,1026,695.1,1027.8,682.2z" />
                              <path fill="#E5701E" d="M932.3,664.8c-5.3-8.8-5.101-18.7,0.5-22c5.5-3.3,14.3,1.2,19.6,10s5,18.7-0.5,22
                   C946.3,678.1,937.6,673.7,932.3,664.8z" />
                              <path fill="#E5701E" d="M900.4,655.8c-2.1-3.399-1-7.899,2.4-10.1c3.399-2.101,7.899-1,10.1,2.399c2.101,3.5,1,7.9-2.399,10
                   C907,660.3,902.5,659.2,900.4,655.8z" />
                              <path fill="#E5701E" d="M787,766.3c-3.4-5.6,0.399-14,8.399-18.899c8-4.9,17.3-4.4,20.7,1.199c3.4,5.601-0.4,14-8.4,18.9
                   S790.4,771.9,787,766.3z" />
                              <path fill="#D8621D" d="M752.3,714.9c-2,1-4,1.699-6.2,1.899c-19.1,2.601-38.5-24.3-43.4-60.1c-4.899-35.8,6.7-66.9,25.8-69.5
                   c3.9-0.5,7.9,0.2,11.7,2c14.8,6.899,27.9,29.7,31.7,58.2C776.199,679.1,767.6,707.1,752.3,714.9z" />
                              <path fill="#AC4D11" d="M752.3,714.9c-14.8-6.9-27.9-29.7-31.7-58.2c-4.3-31.7,4.3-59.8,19.6-67.5
                   c14.8,6.899,27.9,29.7,31.7,58.2C776.199,679.1,767.6,707.1,752.3,714.9z" />
                              <path fill="#D7591E" d="M915.5,829c-1.601-5.6,5.5-12.6,15.8-15.5c10.3-3,20-0.8,21.7,4.8c1.6,5.601-5.5,12.601-15.801,15.5
                   C926.8,836.7,917.1,834.6,915.5,829z" />
                              <path fill="#D7591E" d="M944,764.1c-1.5-6.8,6.3-14.3,17.5-16.8c11.199-2.5,21.399,1,23,7.8C986,761.9,978.199,769.4,967,771.9
                   C955.699,774.4,945.5,770.9,944,764.1z" />
                              <path fill="#D7591E" d="M966.4,885.9c-0.7-1.7,13.9-9.101,32.601-16.5c18.699-7.5,34.399-12.2,35-10.5
                   c0.699,1.699-13.9,9.1-32.601,16.5C982.699,882.9,967.1,887.6,966.4,885.9z" />
                              <path fill="#D7591E" d="M725.199,445.1c-1.699-2.8,11.2-13.8,28.801-24.5c17.6-10.8,33.3-17.199,35-14.399
                   c1.699,2.8-11.2,13.8-28.801,24.5C742.5,441.4,726.9,447.9,725.199,445.1z" />
                              <path fill="#E5701E" d="M934.3,488.9c-3.2-5.2,0.399-13.101,7.899-17.7c7.5-4.601,16.2-4.101,19.4,1c3.2,5.2-0.4,13.1-7.9,17.7
                   C946.199,494.6,937.5,494.1,934.3,488.9z" />
                              <path fill="#D7591E" d="M686,704.9c-4.4-7.2-3.801-15.7,1.399-18.801c5.2-3.199,13,0.2,17.4,7.4c4.399,7.2,3.8,15.7-1.4,18.8
                   C698.199,715.4,690.4,712.1,686,704.9z" />
                              <path fill="#E5701E" d="M999.1,816.1c-2.8-4.5,2-12.399,10.6-17.699c8.601-5.301,17.801-5.9,20.601-1.301
                   c2.8,4.5-2,12.5-10.601,17.7C1011,820,1001.8,820.6,999.1,816.1z" />
                              <path fill="#D7591E" d="M974,808.4c-1.801-3-0.7-7.101,2.5-9c3.199-2,7.3-1.101,9.199,1.899c1.801,3,0.7,7.101-2.5,9
                   C979.9,812.2,975.8,811.4,974,808.4z" />
                              <path fill="#E5701E" d="M1095.1,734.5c-4.9-2.6-5.7-10.8-1.8-18.4c4-7.6,11.199-11.699,16.1-9.1s5.7,10.8,1.8,18.4
                   C1107.199,732.9,1100,737,1095.1,734.5z" />
                         </g>
                         <circle fill="#D7591E" cx="878.8" cy="448" r="10.3" />
                    </g>
                    <ellipse fill="#D7591E" cx="869" cy="414.2" rx="19.5" ry="6.5" />
                    <ellipse fill="#D7591E" cx="959.5" cy="415.3" rx="19.5" ry="6.5" />
               </g>
               <g id="astronaut">
                    <path fill="#DFEDF0" d="M957.5,341l25.6-29.4c0,0,9-4.8,10-11c0,0,0.1-2.4-4.8,2.3c0,0,5.2-4.3,4.8-6.2c-0.5-1.9-3.8,0.8-5.4,2.4
           c-1.6,1.6,7.5-6.8,4.7-8.8s-5.7,4.7-6.4,5.4c0,0,5.2-5.6,2.101-6.4c-3.101-0.8-4.3,4.7-6.3,4.7c0,0,1.699-3.7-0.101-4.3
           c-1.899-0.7-2.1-0.3-3.5,2.9c-0.7,1.6-2.399,0-3.3,4l0.1,0.9c0,0-10.1,4.9-16.399,4.2c0,0-10.7,10.2-20,13.7c0,0-23,9.2-54.8-5.1
           c0,0-17.301-5.7-20.601-9c0,0,1.601-6.6,0-6.6c-1.1,0-2,0.5-2,3.8c0,0,0.7-8.3-3.3-7c0,0-1.2,1.6-1.4,5.9c0,0,0.7-9-2.699-7.8
           c-3.4,1.1-0.801,6.5-0.801,8.3c0,0-2.1-7.7-4-5.8c-1.899,1.9-0.699,6.9-0.1,7.5s0,4-1.1,5.1c-1.101,1.1-5.3,0.4-5.3,2.6
           c0,0,0.399,3.7,5.899,3c0,0,2.3-0.6,9.601,8.5c7.399,9,18.399,13,19.5,19.9c1.1,6.9-0.101,29.6-0.101,29.6s-4.899,25.1-12.1,31.4
           c-16.7,14.5,9.6,19.5,17,12c7.5-7.5,14.7-18.2,20.5-21.8c5.8-3.5,17.1-2.5,23-1c5.899,1.6,14.3,11.7,18.5,20.6s18.399,10.3,22.5,4
           c4.1-6.4-5.7-12.2-7.2-15.7c-1.6-3.5-3.3-27.7-3.3-33.2C956.4,359.1,955.6,343,957.5,341z" />
                    <path fill="#CCDAE1"
                         d="M882.5,401c0,0,6.399-14.4,12.6-16.5c6.2-2.2,25-1.4,31.3-3c6.2-1.6,17.9,19.4,21.2,22.7h-6.1
           c0,0-6.801-12.1-15.5-15.2c-8.801-3.1-21.801-0.6-24.9,2.3c-3.1,2.8-10.8,11.7-10.8,11.7S883.199,403.5,882.5,401z" />
                    <path fill="#CCDAE1"
                         d="M974.1,322l-4-8c0,0-19.2,12.4-21.2,18.5s-3.4,27.7-2.8,37.9c0.6,10.2,6.5,32.4,10.6,32.4
           c4.101,0,0.4,0,0.4,0l3.6-3.6c0,0-3.1-2.7-3.3-20.1c-0.2-17.3-2.5-34.4-0.2-37.3C959.4,338.9,974.1,322,974.1,322z" />
                    <path fill="#CCDAE1" d="M862.8,313.3c0,0,22.1,6.4,22.1,19.4s2.3,44.4-3,55.4c-5.2,11-7.1,12.9-7.1,12.9l-4.9-8.4
           c0,0,7.8-15.9,7.8-31.4c0-15.6,2-22.9-5.5-29.8l-11.2-9.2C861.1,322.1,858.6,316.3,862.8,313.3z" />
                    <path fill="#CCDAE1" d="M968.4,275.4c0,31.5-22.7,44.1-50.7,44.1S865.4,306.9,867,275.4c1.699-32.9,20.8-41.9,48.699-41.9
           C943.8,233.5,968.4,251,968.4,275.4z" />
                    <path fill="#DFEDF0" d="M964.3,274.3c0,30.7-21.8,43-48.601,43c-26.899,0-50.199-12.3-48.6-43c1.6-32,19.9-40.8,46.8-40.8
           C940.8,233.5,964.3,250.6,964.3,274.3z" />
                    <path fill="#3E1F53" d="M956.3,273.5c0,23.8-20,33.4-44.7,33.4s-46.1-9.5-44.7-33.4c1.5-24.8,18.3-31.7,43-31.7
           S956.3,255,956.3,273.5z" />
                    <path fill="#5B3876" d="M949.6,272.7c0,21.4-18.5,29.9-41.3,29.9s-42.601-8.6-41.3-29.9c1.399-22.3,16.899-28.4,39.699-28.4
           C929.5,244.3,949.6,256.1,949.6,272.7z" />
                    <path fill="#FCFCF8"
                         d="M899,263.1c0,6.9-4.5,9.7-10,9.7s-10.301-2.8-10-9.7c0.3-7.2,4.1-9.2,9.6-9.2S899,257.7,899,263.1z" />
                    <path fill="#5B3876" d="M877.1,369.7c0,0,21.2,4.8,39.7,4.8c19.5,0,38.6-6.7,39.6-7.8c1-1,1.9-3.5,0.6-4.9
           c-1.399-1.4-19.3,6.8-39.899,6.8c-20.601,0-37.8-4.7-39.5-4.7C875.8,363.9,876.8,369.4,877.1,369.7z" />
                    <path fill="#5B3876" d="M870.8,390.8c0,0,1.8,4.6,7.3,8.101c5.5,3.5,12.4,2.899,13,2.899s-8.2,10.7-9.8,11.601
           c-1.601,0.899-9.4,5.899-18.601,0.5c0,0-8.8-4.5-2.1-10.601C863.6,400.6,866.1,400.5,870.8,390.8z" />
                    <path fill="#5B3876" d="M940.1,402.4c0,0,6.4,3.6,13.2,0.6s6.399-5.1,6.399-5.1s2.9,3.5,4.5,5.3c1.601,1.8,6.801,6.3,2.7,10.399
           c-4.1,4.101-9.1,7.101-18.8,0.601C948.199,414.1,942.5,409.3,940.1,402.4z" />
                    <path fill="#5B3876" d="M872.199,331.3c0,0-4.199-14.7,6.101-23c0,0-0.3-1.1-2.9-1.1c0,0-9.7,9.3-5.9,21.9
           C869.6,329.1,870.9,331.3,872.199,331.3z" />
                    <path fill="#5B3876" d="M867.199,327.3c0,0-1.899-11.7,6.9-20.6c0,0-0.4-1.1-2.1-1.1c0,0-8.101,7.6-7.2,19.8
           C864.8,325.4,866,327.3,867.199,327.3z" />
                    <path fill="#5B3876" d="M967,330.2c0,0-12-11.3-9.7-24.1c0,0-2.2,2.1-2.8,2.6c-0.601,0.5,0.899,16.8,9.3,25.2
           C963.8,333.8,967,332.1,967,330.2z" />
                    <path fill="#5B3876" d="M968.5,328.4c0,0-10.101-8.4-8.601-25.4l1.101-1.4l2.1-0.3c0,0-2.8,13.6,7.8,24.3
           C970.9,325.7,970.5,327.9,968.5,328.4z" />
                    <path fill="#CCDAE1" d="M885,315.1c0,0,4.5,20.6,19.8,20.6s35.899,8.2,43.399-18.1c0,0,0.4-3.4-4-0.9c-10.1,5.6-41.6,7.2-54.8-1.4
           C889.3,315.2,885,312.3,885,315.1z" />
                    <path fill="#5B3876"
                         d="M856.8,318c0,0-0.5-4.2,5.2-9.3c5.699-5.1,6-4.5,6-4.5s-4.801-2.8-4.601-3.6c0.2-0.7,2.2-5.6-0.5-6.2
           c0,0-1.2,0-1.6,1.6c0,0,0.899-5-2.2-5s-2.4,3.9-2.4,4.5s1.2-7.8-3.1-6.2c0,0-3.2,1.1-0.9,6.9c0,0-0.899-6.2-4.399-4.1
           s0.899,6.5,0.899,9.2c0,2.7-2.8,4.2-4.3,4.2c-1.399,0-3,0.1-3,2.3c0,2.3,3.9,3.5,6.8,2.9C851.4,310.1,854,318,856.8,318z" />
                    <path fill="#5B3876" d="M970.9,299.1c0,0-1.6,2.9,2.4,10.3s6.1,6,6.5,6c0.399,0,1.399-2.1,3.399-3s10.4-7.8,10.4-10.8
           s-1.2-2.5-3.8,0.1c0,0,4.8-4.2,3.3-5.7s-3.9,2-5,3c0,0,7.4-6.5,4.2-8.9c-3.101-2.4-3.7,3.3-6.101,5.3c0,0,5.5-5.4,2.101-6.6
           c0,0-1.7-1-4,2.3c0,0-1.4,2.5-2.4,2.7c0,0,2.101-3.9-0.5-4.7c-2.6-0.8-2.8,2.3-3.5,3.5c-0.6,1.1-1.5-0.6-3.2,3.1
           C973.199,299.4,972.199,297.8,970.9,299.1z" />
                    <path fill="#3E1F53" d="M980.6,297.8c0,0-3.2,3.9-1.1,6.9c2,3,5.699,4.9,7.6,2.4s-3.9-2.7-4.3-6.6
           C982.3,296.5,981.4,296.9,980.6,297.8z" />
                    <path fill="#F05B6F" d="M937,357.3c0,3.7-3,6.8-6.801,6.8H902.3c-3.7,0-6.8-3-6.8-6.8v-12.8c0-3.7,3-6.8,6.8-6.8h27.899
           c3.7,0,6.801,3,6.801,6.8V357.3z" />
               </g>
               <g id="left-rocket">
                    <g>
                         <g>
                              <path id="inner-fire" fill="#DF8E27" d="M321.199,471.8c0,0-24.999-1-34.499,11.101c-9.5,12.1-2.801,9.399,1.899,8.6
                   c0,0,4.2,0.5-4.399,6.4c-8.601,5.899-12.801,15-7.2,14c5.6-1,5.899-5.2,7.7-4c1.699,1.199-8.601,23.8-4.2,26.8
                   c4.399,3,8.2-5.9,10.5-3c2.3,2.899-11.601,19.8-6.601,21.899c5,2.101,16.9-16.1,18.9-14.699c2,1.399-6.4,13.3,1.5,11.899
                   c7.899-1.399,17.399-6.8,20.6-13.2c0,0,2.2-0.899,0.7,3.9c-1.5,4.7,1.5,7.7,7.2-0.5s5.5-15.6,7.3-14.4
                   c1.8,1.301-2.4,11.7,0.6,11.2c2.9-0.5,10.4-6.3,9.7-26.3c0,0,0.101-14.5,2-17.3L321.199,471.8z" />
                              <path id="middle-fire" fill="#F5CE16" d="M325.8,475.1c0,0-17.601,0.7-24.9,10.301c-7.399,9.5-2.5,7.199,0.801,6.3
                   c0,0,3,0.1-3.5,5c-6.4,4.899-9.9,11.899-5.9,10.899c4-1.1,4.5-4.199,5.6-3.399c1.101,0.8-7.399,18.2-4.5,20.2
                   c2.9,2,6.101-4.9,7.5-2.801c1.4,2.101-9.3,15.4-5.899,16.7c3.399,1.3,12.8-13,14.1-12c1.3,0.9-5.3,10.2,0.4,8.8
                   c5.6-1.5,12.699-6.1,15.199-11.1c0,0,1.601-0.8,0.301,2.8c-1.4,3.601,0.6,5.7,5.1-0.8c4.5-6.4,4.8-12,6-11.1
                   c1.2,0.8-2.3,8.899-0.2,8.3c2.101-0.601,7.601-5.3,8.3-20.101c0,0,0.9-10.8,2.4-13L325.8,475.1z" />
                              <path id="outter-fire" fill="#E88B25"
                                   d="M314,487.9c2.699,1.899,5.6-1.601,4.399,1.6s-9,11.4-5.899,11.6
                   c4.8,0.301-2.7,9.9,0.399,9.301c3.101-0.601,6.3-3,8.3-3.4s2.9,4.7,5,1.7c2.101-3,3-9.7,5.101-10.101
                   c2.2-0.399,2.899,5.5,4.399,3.4c1.5-2.2,6.3-15.2,6.3-15.2l-13.199-9.7C328.9,477.2,311.3,486,314,487.9z" />
                         </g>
                         <g>
                              <path fill="#3E1F53" d="M564.699,283.2c-11.3,12.1-30.199,12.7-42.3,1.5c-12.1-11.3-12.7-30.2-1.5-42.3
                   c11.3-12.1,30.2-12.7,42.3-1.5C575.199,252.2,575.9,271.1,564.699,283.2z" />
                              <g>
                                   <path fill="none" d="M525.3,246.5c-9,9.7-8.5,24.8,1.2,33.8c9.699,9,24.8,8.5,33.8-1.2c9-9.7,8.5-24.8-1.2-33.8
                       S534.3,236.8,525.3,246.5z" />
                                   <path fill="#FBB41A" d="M578.6,221.9c-6.6-6.1-34.2,1.2-60.6,9.3C491.6,239.3,481.9,253,481.9,253l73.5,68.9
                       c0,0,11.2,0.2,19.101-32.9C583.199,253.4,585.199,228.1,578.6,221.9z M560.3,279.1c-9,9.7-24.101,10.2-33.8,1.2
                       c-9.7-9-10.2-24.1-1.2-33.8s24.1-10.2,33.8-1.2S569.3,269.4,560.3,279.1z" />
                              </g>
                              <path fill="#EC008C" d="M391,275.6c-2.5,2.7-7.601,2.1-11.301-1.4l0,0c-3.699-3.5-4.699-8.5-2.1-11.2l18.3-19.7
                   c2.5-2.7,25.4-21.2,29.101-17.8l0,0c3.699,3.5-13.2,27.6-15.7,30.3L391,275.6z" />
                              <path fill="#900656" d="M421.4,267.2c-1.399,1.5-4.2,1.2-6.2-0.7l0,0c-2-1.9-2.6-4.7-1.2-6.1l10-10.8c1.4-1.5,13.9-11.7,16-9.8
                   l0,0c2,1.9-7.199,15.2-8.6,16.7L421.4,267.2z" />

                              <rect x="404.251" y="261.262"
                                   transform="matrix(-0.7317 -0.6816 0.6816 -0.7317 540.494 745.1693)" fill="#6E004E"
                                   width="25.299" height="9.899" />
                              <path fill="#EC008C" d="M538.8,413.3c-2.5,2.7-1.601,7.7,2.1,11.2l0,0c3.7,3.5,8.8,4.1,11.3,1.3l18.3-19.7
                   c2.5-2.699,19.4-26.899,15.7-30.3l0,0c-3.7-3.5-26.6,15.1-29.1,17.8L538.8,413.3z" />
                              <path fill="#900656" d="M545,382.3c-1.4,1.5-0.9,4.2,1.199,6.1l0,0c2,1.9,4.801,2.2,6.2,0.7l10.101-10.8
                   c1.399-1.5,10.699-14.7,8.6-16.6l0,0c-2-1.9-14.6,8.3-16,9.8L545,382.3z" />

                              <rect x="534.517" y="381.753"
                                   transform="matrix(0.7317 0.6816 -0.6816 0.7317 409.7056 -269.478)" fill="#6E004E"
                                   width="25.299" height="7.9" />
                              <polygon fill="#44054F" points="318.8,471.4 352.4,503.1 375.699,492.9 326.3,446.9 				" />
                              <path fill="#900656" d="M554.1,332c-4.6,4.9-7.4,9.8-12.4,5.2l-73.5-68.5c-4.899-4.6-0.3-7.7,4.3-12.7l0,0
                   c4.601-4.9,7.4-9.8,12.4-5.2l73.5,68.5C563.4,323.9,558.699,327,554.1,332L554.1,332z" />
                              <path fill="#ED0A71"
                                   d="M468.199,268.7l-5-4.7c0,0-2.699-4.5-14.6-0.5l-98.9,30.6c0,0-5-0.4-6.899,7.4
                   c-1.9,7.8-24.601,108.2-24.601,108.2s-1.699,3,2.601,7.1c4.3,4,82.399,76.7,82.399,76.7s2.7,3.3,9.2,0.9
                   c6.5-2.4,104.8-32.4,104.8-32.4s5.5-1,7.101-7.6c1.6-6.601,23.1-107.3,23.1-107.3s2.6-4.1-4.5-8.8L468.199,268.7z" />
                              <path fill="#900656" d="M326,309.2L310.6,373c0,0-1.1,6.7,3.4,10.9c4.5,4.2,8.5,8,8.5,8l20.399-89.6l-10.3,0.4
                   C332.6,302.7,327,302.7,326,309.2z" />
                              <path fill="#900656" d="M509.199,480.5l-62.5,20c0,0-6.6,1.6-11.199-2.6c-4.5-4.2-8.5-8-8.5-8l87.899-26.7l0.4,10.3
                   C515.199,473.5,515.6,479,509.199,480.5z" />
                              <path fill="#F79C1F" d="M326,309.2l-34.101-2.6c0,0-2.899-0.7-6.8,3.4c-3.8,4.1-28.1,69.7-28.1,69.7s-2.5,4.9,0.3,7.4l7.4,6.9
                   l28.199-42.4c0,0,0.7-2.4,5.801-0.2l15.799,4.9L326,309.2z" />
                              <path fill="#F79C1F" d="M509.8,480.2l5,33.8c0,0,0.899,2.9-2.9,7s-67.6,32.9-67.6,32.9s-4.7,2.8-7.4,0.3l-7.399-6.9l40.3-31.2
                   c0,0,2.399-0.899-0.2-5.8l-6-15.399L509.8,480.2z" />

                              <rect x="304.101" y="453.293"
                                   transform="matrix(-0.7317 -0.6816 0.6816 -0.7317 302.0648 1043.7795)" fill="#900656"
                                   width="104.698" height="18.3" />
                              <path fill="#FBB41A" d="M385.8,361.8c-2.5,2.7-7.601,2.1-11.3-1.3l0,0c-3.7-3.5-4.7-8.5-2.101-11.2l18.3-19.7
                   c2.5-2.7,25.4-21.2,29.101-17.8l0,0c3.7,3.5-13.2,27.6-15.7,30.3L385.8,361.8z" />
                              <path fill="#FBB41A" d="M466,436.6c-2.5,2.7-7.601,2.101-11.301-1.3l0,0c-3.699-3.5-4.699-8.5-2.1-11.2l18.3-19.699
                   c2.5-2.7,25.4-21.2,29.101-17.8l0,0c3.699,3.5-13.2,27.6-15.7,30.3L466,436.6z" />

                              <rect x="401.191" y="342.235"
                                   transform="matrix(-0.7317 -0.6816 0.6816 -0.7317 466.4337 877.9513)" fill="#6E004E"
                                   width="9.6" height="9.9" />

                              <rect x="458.379" y="397.127"
                                   transform="matrix(-0.7319 -0.6814 0.6814 -0.7319 531.157 1013.1295)" fill="#6E004E"
                                   width="13" height="9.9" />
                              <path fill="#EE4D9B" d="M462,402.6c-14.4,15.5-38.601,16.301-54,1.9c-15.4-14.4-16.301-38.6-1.9-54c14.4-15.5,38.6-16.3,54-1.9
                   C475.6,362.9,476.4,387.1,462,402.6z" />
                              <path fill="#900656" d="M457.3,398.2c-12,12.899-32.2,13.6-45,1.6c-12.9-12-13.601-32.2-1.601-45c12-12.9,32.2-13.6,45-1.6
                   C468.6,365.2,469.3,385.4,457.3,398.2z" />
                              <path fill="#6E004E" d="M453,394.1c-9.7,10.4-26.101,11-36.5,1.3c-10.4-9.7-11-26.1-1.301-36.5c9.7-10.4,26.101-11,36.5-1.3
                   C462.1,367.3,462.699,383.7,453,394.1z" />
                              <path fill="#FBB41A" d="M443.4,378.5c-3.5,3.7-9.3,3.9-13,0.5l0,0c-3.7-3.5-3.899-9.3-0.5-13L455,339
                   c3.5-3.7,33.699-30.1,37.399-26.6l0,0c3.7,3.5-20.5,35.5-23.899,39.2L443.4,378.5z" />
                         </g>
                    </g>
                    <path fill="#44054F" d="M569.6,276c-1.3,2.6-2.9,5-5,7.2c-11.3,12.1-30.2,12.7-42.3,1.5c-12.101-11.3-12.7-30.2-1.5-42.3
           c2.8-3,6.1-5.3,9.6-6.9c10.7-4.8,23.6-3.1,32.7,5.4C573,250.1,575.3,264.5,569.6,276z" />
                    <path fill="#541761" d="M569.6,276c-10.6,4.8-23.6,3.1-32.7-5.4c-9.9-9.2-12.1-23.5-6.5-35.1c10.7-4.8,23.6-3.1,32.7,5.4
           C573,250.1,575.3,264.5,569.6,276z" />
                    <circle fill="#FCFCF8" cx="547.8" cy="246.2" r="6.5" />
               </g>
          </g>
          <!-- <script>
               console.log("hello");
               const allCircles = [...document.querySelectorAll('circle')];
               const smallCircles = allCircles.filter(t => t.r.baseVal.value === 4);
               const smallerCircles = allCircles.filter(t => t.r.baseVal.value < 4);
               const bigCircle = allCircles.find(t => t.r.baseVal.value === 44.5);
               const leftRocketFires = document.querySelectorAll('#left-rocket path');
               const astronaut = document.getElementById('astronaut');
               bigCircle.classList.toggle('animate-big');

               const mappedCircles = allCircles.map(t => {
                    return {
                         radius: t.r.baseVal.value
                    }
               })
               console.log(mappedCircles);

               console.log(smallCircles);
               console.log(smallerCircles);
               shine(smallCircles);
               shine(smallerCircles);
               setOnFire(leftRocketFires);
               toggleClass(astronaut, 'jump');
               jump(astronaut);

               function shine(circles) {
                    circles.forEach(element => {
                         toggleClass(element, 'shine');
                         element.addEventListener('transitionend',
                              t => {
                                   if (t.propertyName === "opacity") {
                                        toggleClass(t.target, 'shine');
                                   }
                              });
                    });
               }
          </script> -->
     </svg>